<?xml version="1.0" encoding="UTF-8"?>
<svg xmlns="http://www.w3.org/2000/svg" width="1312.74" height="864" viewBox="0 0 1312.74 864">
  <defs>
    <style>
      .cls-1 {
        stroke: #d6d6d6;
        stroke-linecap: round;
        stroke-linejoin: round;
        stroke-width: .71px;
      }

      .cls-1, .cls-2, .cls-3, .cls-4 {
        fill: none;
      }

      .cls-2, .cls-3 {
        stroke-width: 1.44px;
      }

      .cls-2, .cls-3, .cls-4 {
        stroke: #000;
        stroke-miterlimit: 10;
      }

      .cls-3 {
        stroke-dasharray: 12.11 12.11;
      }

      .cls-4 {
        stroke-width: 4.32px;
      }
    </style>
  </defs>
  <g id="Poly-Furniture">
    <line class="cls-1" x1="48.9" y1="706.94" x2="1261.95" y2="706.94"/>
  </g>
  <g id="Poly-Header">
    <line class="cls-1" x1="48.9" y1="208.89" x2="1263.84" y2="208.89"/>
    <line class="cls-1" x1="48.9" y1="271.61" x2="1263.84" y2="271.61"/>
    <line class="cls-1" x1="48.9" y1="334.34" x2="1263.84" y2="334.34"/>
    <line class="cls-1" x1="48.9" y1="397.06" x2="1263.84" y2="397.06"/>
    <line class="cls-1" x1="48.9" y1="459.78" x2="1263.84" y2="459.78"/>
    <line class="cls-1" x1="48.9" y1="522.5" x2="1263.84" y2="522.5"/>
    <line class="cls-1" x1="48.9" y1="585.23" x2="1263.84" y2="585.23"/>
    <line class="cls-1" x1="48.9" y1="647.95" x2="1263.84" y2="647.95"/>
    <rect class="cls-4" x="917.59" y="84.21" width="344.36" height="702.48"/>
    <rect class="cls-4" x="571.67" y="84.21" width="344.36" height="702.48"/>
    <rect class="cls-4" x="225.75" y="84.21" width="344.36" height="702.48"/>
    <rect class="cls-4" x="48.9" y="84.21" width="175.29" height="702.48"/>
    <g>
      <line class="cls-2" x1="397.93" y1="84.21" x2="397.93" y2="90.21"/>
      <line class="cls-3" x1="397.93" y1="102.33" x2="397.93" y2="774.63"/>
      <line class="cls-2" x1="397.93" y1="780.69" x2="397.93" y2="786.69"/>
    </g>
    <g>
      <line class="cls-2" x1="743.85" y1="84.21" x2="743.85" y2="90.21"/>
      <line class="cls-3" x1="743.85" y1="102.33" x2="743.85" y2="774.63"/>
      <line class="cls-2" x1="743.85" y1="780.69" x2="743.85" y2="786.69"/>
    </g>
    <g>
      <line class="cls-2" x1="1089.77" y1="84.21" x2="1089.77" y2="90.21"/>
      <line class="cls-3" x1="1089.77" y1="102.33" x2="1089.77" y2="774.63"/>
      <line class="cls-2" x1="1089.77" y1="780.69" x2="1089.77" y2="786.69"/>
    </g>
  </g>
</svg>