<?xml version="1.0" encoding="UTF-8"?>
<svg xmlns="http://www.w3.org/2000/svg" width="864" height="864" viewBox="0 0 864 864">
  <defs>
    <style>
      .cls-1 {
        stroke: gray;
      }

      .cls-1, .cls-2, .cls-3, .cls-4, .cls-5, .cls-6, .cls-7 {
        fill: none;
        stroke-linecap: round;
        stroke-linejoin: round;
      }

      .cls-1, .cls-4, .cls-5 {
        stroke-width: .71px;
      }

      .cls-8 {
        fill-rule: evenodd;
      }

      .cls-8, .cls-9 {
        fill: #fff;
      }

      .cls-2 {
        stroke-dasharray: 2.16;
      }

      .cls-2, .cls-3 {
        stroke-width: .71px;
      }

      .cls-2, .cls-3, .cls-5, .cls-6, .cls-7 {
        stroke: #efefef;
      }

      .cls-3 {
        stroke-dasharray: 2.88;
      }

      .cls-4 {
        stroke: #fff;
      }

      .cls-6 {
        stroke-width: .72px;
      }

      .cls-7 {
        stroke-width: 1.44px;
      }
    </style>
  </defs>
  <g id="Poly-Rooms">
    <g id="LWPOLYLINE">
      <polyline class="cls-7" points="133.83 23.01 133.83 797.99 461.23 797.99 461.23 432.79 487.74 432.79 487.74 23.01 133.83 23.01"/>
    </g>
  </g>
  <g id="Poly-Walls">
    <g id="LWPOLYLINE-2" data-name="LWPOLYLINE">
      <polyline class="cls-1" points="133.83 797.99 133.83 23.01 128.51 17.68 128.51 803.31 133.83 797.99"/>
    </g>
    <g id="LWPOLYLINE-3" data-name="LWPOLYLINE">
      <polyline class="cls-1" points="487.74 23.01 487.74 432.79 493.06 438.11 493.06 17.68 487.74 23.01"/>
    </g>
    <g id="LWPOLYLINE-4" data-name="LWPOLYLINE">
      <polyline class="cls-1" points="461.23 432.79 461.23 797.99 466.55 803.31 466.55 438.11 461.23 432.79"/>
    </g>
    <g id="LWPOLYLINE-5" data-name="LWPOLYLINE">
      <polyline class="cls-1" points="461.23 797.99 133.83 797.99 128.51 803.31 466.55 803.31 461.23 797.99"/>
    </g>
    <g id="LWPOLYLINE-6" data-name="LWPOLYLINE">
      <polyline class="cls-1" points="487.74 432.79 461.23 432.79 466.55 438.11 493.06 438.11 487.74 432.79"/>
    </g>
  </g>
  <g id="Poly-WallsHatch">
    <g id="HATCH">
      <polygon class="cls-8" points="487.74 23.01 487.74 432.79 493.06 438.11 493.06 17.68 487.74 23.01"/>
    </g>
    <g id="HATCH-2" data-name="HATCH">
      <polygon class="cls-8" points="461.23 432.79 461.23 797.99 466.55 803.31 466.55 438.11 461.23 432.79"/>
    </g>
    <g id="HATCH-3" data-name="HATCH">
      <polyline class="cls-8" points="466.55 803.31 461.23 797.99 133.83 797.99 128.51 803.31"/>
    </g>
    <g id="HATCH-4" data-name="HATCH">
      <polygon class="cls-8" points="487.74 432.79 461.23 432.79 466.55 438.11 493.06 438.11 487.74 432.79"/>
    </g>
  </g>
  <g id="Poly-Doors">
    <g id="LWPOLYLINE-7" data-name="LWPOLYLINE">
      <polyline class="cls-4" points="466.55 440.94 461.23 440.94 461.23 797.99 466.55 797.99 466.55 440.94"/>
    </g>
    <g id="HATCH-5" data-name="HATCH">
      <rect class="cls-9" x="461.23" y="440.94" width="5.32" height="357.05"/>
    </g>
    <g>
      <polygon class="cls-9" points="128.51 17.68 133.83 23.01 152 23.01 152 17.68 128.51 17.68"/>
      <polygon class="cls-9" points="493.06 17.68 194.66 17.68 194.66 23.01 487.74 23.01 493.06 17.68"/>
    </g>
  </g>
  <g id="Poly-Furniture">
    <g id="SPLINE">
      <path class="cls-7" d="M133.84,347.36v94.64c0,.66.3,1.2.67,1.2h36.71c.37,0,.67-.54.67-1.2v-94.64c0-.66-.3-1.2-.67-1.2h-36.71c-.37,0-.67.54-.67,1.2Z"/>
    </g>
    <g id="SPLINE-2" data-name="SPLINE">
      <path class="cls-7" d="M487.73,284.75V107.3c0-1.24-.27-2.25-.61-2.25h-33.23l2.45,326.94,31.39.79"/>
    </g>
    <g id="LINE">
      <line class="cls-7" x1="139.29" y1="576.57" x2="136.99" y2="546.57"/>
    </g>
    <g id="LINE-2" data-name="LINE">
      <line class="cls-7" x1="136.99" y1="546.57" x2="136.99" y2="521.53"/>
    </g>
    <g id="LINE-3" data-name="LINE">
      <line class="cls-7" x1="136.99" y1="521.53" x2="139.29" y2="491.53"/>
    </g>
    <g id="LINE-4" data-name="LINE">
      <line class="cls-7" x1="139.29" y1="491.53" x2="139.29" y2="491.53"/>
    </g>
    <g id="LINE-5" data-name="LINE">
      <line class="cls-7" x1="139.29" y1="490.71" x2="139.35" y2="490.33"/>
    </g>
    <g id="LINE-6" data-name="LINE">
      <line class="cls-7" x1="139.35" y1="490.33" x2="139.5" y2="490.02"/>
    </g>
    <g id="LINE-7" data-name="LINE">
      <line class="cls-7" x1="139.5" y1="490.02" x2="139.72" y2="489.82"/>
    </g>
    <g id="LINE-8" data-name="LINE">
      <line class="cls-7" x1="139.72" y1="489.82" x2="139.99" y2="489.74"/>
    </g>
    <g id="LINE-9" data-name="LINE">
      <line class="cls-7" x1="139.99" y1="489.74" x2="140.24" y2="489.74"/>
    </g>
    <g id="LINE-10" data-name="LINE">
      <line class="cls-7" x1="140.24" y1="489.74" x2="140.52" y2="489.82"/>
    </g>
    <g id="LINE-11" data-name="LINE">
      <line class="cls-7" x1="140.52" y1="489.82" x2="140.74" y2="490.02"/>
    </g>
    <g id="LINE-12" data-name="LINE">
      <line class="cls-7" x1="140.74" y1="490.02" x2="140.89" y2="490.33"/>
    </g>
    <g id="LINE-13" data-name="LINE">
      <line class="cls-7" x1="140.89" y1="490.33" x2="140.94" y2="490.71"/>
    </g>
    <g id="LINE-14" data-name="LINE">
      <line class="cls-7" x1="140.94" y1="490.71" x2="140.94" y2="578.02"/>
    </g>
    <g id="LINE-15" data-name="LINE">
      <line class="cls-7" x1="140.94" y1="578.02" x2="140.89" y2="578.4"/>
    </g>
    <g id="LINE-16" data-name="LINE">
      <line class="cls-7" x1="140.89" y1="578.4" x2="140.74" y2="578.71"/>
    </g>
    <g id="LINE-17" data-name="LINE">
      <line class="cls-7" x1="140.74" y1="578.71" x2="140.52" y2="578.92"/>
    </g>
    <g id="LINE-18" data-name="LINE">
      <line class="cls-7" x1="140.52" y1="578.92" x2="140.24" y2="578.99"/>
    </g>
    <g id="LINE-19" data-name="LINE">
      <line class="cls-7" x1="140.24" y1="578.99" x2="139.99" y2="578.99"/>
    </g>
    <g id="LINE-20" data-name="LINE">
      <line class="cls-7" x1="139.99" y1="578.99" x2="139.72" y2="578.92"/>
    </g>
    <g id="LINE-21" data-name="LINE">
      <line class="cls-7" x1="139.72" y1="578.92" x2="139.5" y2="578.71"/>
    </g>
    <g id="LINE-22" data-name="LINE">
      <line class="cls-7" x1="139.5" y1="578.71" x2="139.35" y2="578.4"/>
    </g>
    <g id="LINE-23" data-name="LINE">
      <line class="cls-7" x1="139.35" y1="578.4" x2="139.29" y2="578.02"/>
    </g>
    <g id="LINE-24" data-name="LINE">
      <line class="cls-7" x1="139.29" y1="578.02" x2="139.29" y2="578.02"/>
    </g>
    <g id="LINE-25" data-name="LINE">
      <line class="cls-7" x1="136.99" y1="529.33" x2="136.99" y2="539.27"/>
    </g>
    <g id="LINE-26" data-name="LINE">
      <line class="cls-7" x1="137.74" y1="556.39" x2="136.64" y2="556.39"/>
    </g>
    <g id="LINE-27" data-name="LINE">
      <line class="cls-7" x1="136.64" y1="556.39" x2="136.07" y2="556.31"/>
    </g>
    <g id="LINE-28" data-name="LINE">
      <line class="cls-7" x1="136.07" y1="556.31" x2="135.55" y2="556.08"/>
    </g>
    <g id="LINE-29" data-name="LINE">
      <line class="cls-7" x1="135.55" y1="556.08" x2="135.07" y2="555.72"/>
    </g>
    <g id="LINE-30" data-name="LINE">
      <line class="cls-7" x1="135.07" y1="555.72" x2="134.66" y2="555.25"/>
    </g>
    <g id="LINE-31" data-name="LINE">
      <line class="cls-7" x1="134.66" y1="555.25" x2="134.31" y2="554.67"/>
    </g>
    <g id="LINE-32" data-name="LINE">
      <line class="cls-7" x1="134.31" y1="554.67" x2="134.06" y2="554.01"/>
    </g>
    <g id="LINE-33" data-name="LINE">
      <line class="cls-7" x1="134.06" y1="554.01" x2="133.89" y2="553.28"/>
    </g>
    <g id="LINE-34" data-name="LINE">
      <line class="cls-7" x1="133.89" y1="553.28" x2="133.84" y2="552.5"/>
    </g>
    <g id="LINE-35" data-name="LINE">
      <line class="cls-7" x1="133.84" y1="552.5" x2="133.84" y2="516.34"/>
    </g>
    <g id="LINE-36" data-name="LINE">
      <line class="cls-7" x1="133.84" y1="516.34" x2="133.89" y2="515.56"/>
    </g>
    <g id="LINE-37" data-name="LINE">
      <line class="cls-7" x1="133.89" y1="515.56" x2="134.06" y2="514.83"/>
    </g>
    <g id="LINE-38" data-name="LINE">
      <line class="cls-7" x1="134.06" y1="514.83" x2="134.31" y2="514.17"/>
    </g>
    <g id="LINE-39" data-name="LINE">
      <line class="cls-7" x1="134.31" y1="514.17" x2="134.66" y2="513.59"/>
    </g>
    <g id="LINE-40" data-name="LINE">
      <line class="cls-7" x1="134.66" y1="513.59" x2="135.07" y2="513.12"/>
    </g>
    <g id="LINE-41" data-name="LINE">
      <line class="cls-7" x1="135.07" y1="513.12" x2="135.55" y2="512.76"/>
    </g>
    <g id="LINE-42" data-name="LINE">
      <line class="cls-7" x1="135.55" y1="512.76" x2="136.07" y2="512.53"/>
    </g>
    <g id="LINE-43" data-name="LINE">
      <line class="cls-7" x1="136.07" y1="512.53" x2="136.64" y2="512.46"/>
    </g>
    <g id="LINE-44" data-name="LINE">
      <line class="cls-7" x1="136.64" y1="512.46" x2="137.69" y2="512.46"/>
    </g>
    <g id="SPLINE-3" data-name="SPLINE">
      <path class="cls-7" d="M133.84,514.82v94.69c0,.66.28,1.2.64,1.2h34.83c.35,0,.64-.54.64-1.2v-94.69c0-.66-.28-1.2-.64-1.2h-34.83c-.35,0-.64.54-.64,1.2Z"/>
    </g>
    <g id="LWPOLYLINE-8" data-name="LWPOLYLINE">
      <polyline class="cls-7" points="157.58 329.37 133.83 329.37 133.83 123.66 154.83 123.66"/>
    </g>
    <g id="LINE-45" data-name="LINE">
      <line class="cls-7" x1="155.25" y1="123.91" x2="154.83" y2="123.91"/>
    </g>
    <g id="SPLINE-4" data-name="SPLINE">
      <path class="cls-7" d="M133.84,448.79v59.96c0,.2.18.37.39.37h41.94c.22,0,.39-.17.39-.37v-7.67c-.34.25-.77.4-1.23.4h-27c-.51.4-1.16.64-1.86.64h-4.53c-1.11,0-2.02-.85-2.02-1.9v-42.68c0-1.04.91-1.9,2.02-1.9h4.53c.57,0,1.1.16,1.55.42h27.31c.46,0,.89.15,1.23.4v-7.67c0-.2-.18-.37-.39-.37h-41.94c-.22,0-.39.17-.39.37Z"/>
    </g>
    <g id="SPLINE-5" data-name="SPLINE">
      <path class="cls-7" d="M148.03,456.06h27.31c.46,0,.89.15,1.23.4.48.35.79.89.79,1.5v41.61c0,.61-.31,1.16-.79,1.5-.34.25-.77.4-1.23.4h-27c.65-.51,1.06-1.27,1.06-2.11v-40.98c0-.98-.55-1.84-1.37-2.33Z"/>
    </g>
    <g id="SPLINE-6" data-name="SPLINE">
      <path class="cls-7" d="M141.94,455.63h4.53c.57,0,1.1.16,1.55.42.82.49,1.37,1.35,1.37,2.33v40.98c0,.85-.41,1.61-1.06,2.11-.51.4-1.16.64-1.86.64h-4.53c-.6,0-1.13-.25-1.5-.64-.32-.34-.51-.78-.51-1.26v-42.68c0-1.04.91-1.9,2.02-1.9Z"/>
    </g>
    <g id="SPLINE-7" data-name="SPLINE">
      <path class="cls-7" d="M133.84,501.85c0,.28.21.26.56.26h5.21l.83-.64"/>
    </g>
    <g id="SPLINE-8" data-name="SPLINE">
      <path class="cls-7" d="M133.84,455.74c0-.28.21-.26.56-.26h5.21l.83.64"/>
    </g>
    <g id="SPLINE-9" data-name="SPLINE">
      <path class="cls-7" d="M458.76,29.61h-123.25c-.86,0-1.56.45-1.56,1.01v55.44c0,.56.7,1.01,1.56,1.01h123.25c.86,0,1.56-.45,1.56-1.01V30.62c0-.56-.7-1.01-1.56-1.01Z"/>
    </g>
    <g id="LWPOLYLINE-9" data-name="LWPOLYLINE">
      <rect class="cls-7" x="208.19" y="776.84" width="143.85" height="21.14"/>
    </g>
    <g id="LWPOLYLINE-10" data-name="LWPOLYLINE">
      <rect class="cls-7" x="208.19" y="774.07" width="28.44" height="2.34"/>
    </g>
    <g id="LINE-46" data-name="LINE">
      <line class="cls-7" x1="208.36" y1="776.41" x2="208.36" y2="776.84"/>
    </g>
    <g id="LINE-47" data-name="LINE">
      <line class="cls-7" x1="236.43" y1="776.41" x2="236.43" y2="776.84"/>
    </g>
    <g id="LWPOLYLINE-11" data-name="LWPOLYLINE">
      <rect class="cls-7" x="236.86" y="774.07" width="28.44" height="2.34"/>
    </g>
    <g id="LINE-48" data-name="LINE">
      <line class="cls-7" x1="237.03" y1="776.41" x2="237.03" y2="776.84"/>
    </g>
    <g id="LINE-49" data-name="LINE">
      <line class="cls-7" x1="265.1" y1="776.41" x2="265.1" y2="776.84"/>
    </g>
    <g id="LWPOLYLINE-12" data-name="LWPOLYLINE">
      <rect class="cls-7" x="265.8" y="774.07" width="28.44" height="2.34"/>
    </g>
    <g id="LINE-50" data-name="LINE">
      <line class="cls-7" x1="265.99" y1="776.41" x2="265.99" y2="776.84"/>
    </g>
    <g id="LINE-51" data-name="LINE">
      <line class="cls-7" x1="294.04" y1="776.41" x2="294.04" y2="776.84"/>
    </g>
    <g id="LWPOLYLINE-13" data-name="LWPOLYLINE">
      <rect class="cls-7" x="294.79" y="774.07" width="28.44" height="2.34"/>
    </g>
    <g id="LINE-52" data-name="LINE">
      <line class="cls-7" x1="294.97" y1="776.41" x2="294.97" y2="776.84"/>
    </g>
    <g id="LINE-53" data-name="LINE">
      <line class="cls-7" x1="323.02" y1="776.41" x2="323.02" y2="776.84"/>
    </g>
    <g id="LWPOLYLINE-14" data-name="LWPOLYLINE">
      <rect class="cls-7" x="323.23" y="774.07" width="28.81" height="2.34"/>
    </g>
    <g id="LINE-54" data-name="LINE">
      <line class="cls-7" x1="323.4" y1="776.41" x2="323.4" y2="776.84"/>
    </g>
    <g id="LINE-55" data-name="LINE">
      <line class="cls-7" x1="351.84" y1="776.41" x2="351.84" y2="776.84"/>
    </g>
    <g>
      <rect class="cls-7" x="487.74" y="287" width="0" height="145.78"/>
      <rect class="cls-7" x="461.19" y="432.78" width="26.54" height="0"/>
    </g>
    <g id="LWPOLYLINE-15" data-name="LWPOLYLINE">
      <rect class="cls-7" x="133.83" y="76.53" width="29.58" height="33.09"/>
    </g>
    <g id="SPLINE-10" data-name="SPLINE">
      <path class="cls-7" d="M262.83,578.06v93.16c0,.58-.34,1.04-.76,1.04h-46.6c-.42,0-.76-.47-.76-1.04v-93.16c0-.58.34-1.04.76-1.04h46.6c.42,0,.76.47.76,1.04Z"/>
    </g>
    <g id="SPLINE-11" data-name="SPLINE">
      <path class="cls-7" d="M318.51,630.54h93.16c.58,0,1.04.34,1.04.76v46.6c0,.42-.47.76-1.04.76h-93.16c-.58,0-1.04-.34-1.04-.76v-46.6c0-.42.47-.76,1.04-.76Z"/>
    </g>
    <g id="SPLINE-12" data-name="SPLINE">
      <path class="cls-7" d="M318.51,582.42h93.16c.58,0,1.04.34,1.04.76v46.6c0,.42-.47.76-1.04.76h-93.16c-.58,0-1.04-.34-1.04-.76v-46.6c0-.42.47-.76,1.04-.76Z"/>
    </g>
    <g id="SPLINE-13" data-name="SPLINE">
      <path class="cls-7" d="M286.19,489.74h93.16c.58,0,1.04.34,1.04.76v46.6c0,.42-.47.76-1.04.76h-93.16c-.58,0-1.04-.34-1.04-.76v-46.6c0-.42.47-.76,1.04-.76Z"/>
    </g>
    <g id="SPLINE-14" data-name="SPLINE">
      <path class="cls-7" d="M286.19,441.63h93.16c.58,0,1.04.34,1.04.76v46.6c0,.42-.47.76-1.04.76h-93.16c-.58,0-1.04-.34-1.04-.76v-46.6c0-.42.47-.76,1.04-.76Z"/>
    </g>
    <g id="SPLINE-15" data-name="SPLINE">
      <path class="cls-7" d="M309.21,303.2v93.16c0,.58-.34,1.04-.76,1.04h-46.6c-.42,0-.76-.47-.76-1.04v-93.16c0-.58.34-1.04.76-1.04h46.6c.42,0,.76.47.76,1.04Z"/>
    </g>
    <g id="SPLINE-16" data-name="SPLINE">
      <path class="cls-7" d="M400.93,308.45v82.66c0,.51-.65.93-1.44.93h-88.84c-.8,0-1.44-.41-1.44-.93v-82.66c0-.51.65-.93,1.44-.93h88.84c.8,0,1.44.41,1.44.93Z"/>
    </g>
    <g id="SPLINE-17" data-name="SPLINE">
      <path class="cls-7" d="M400.93,149.99v89.76c0,.55-.93,1-2.07,1h-127.77c-1.14,0-2.07-.45-2.07-1v-89.76c0-.55.93-1,2.07-1h127.76c1.15,0,2.07.45,2.07,1Z"/>
    </g>
    <g id="SPLINE-18" data-name="SPLINE">
      <path class="cls-7" d="M476.77,740.55v46.58c0,.29-.1.52-.23.52h-14.09c-.13,0-.23-.23-.23-.52v-46.58c0-.29.1-.52.23-.52h14.09c.13,0,.23.23.23.52Z"/>
    </g>
    <g id="SPLINE-19" data-name="SPLINE">
      <path class="cls-7" d="M476.77,692.58v46.58c0,.29-.1.52-.23.52h-14.09c-.13,0-.23-.23-.23-.52v-46.58c0-.29.1-.52.23-.52h14.09c.13,0,.23.23.23.52Z"/>
    </g>
    <g id="SPLINE-20" data-name="SPLINE">
      <path class="cls-7" d="M476.77,644.62v46.58c0,.29-.1.52-.23.52h-14.09c-.13,0-.23-.23-.23-.52v-46.58c0-.29.1-.52.23-.52h14.09c.13,0,.23.23.23.52Z"/>
    </g>
    <g id="SPLINE-21" data-name="SPLINE">
      <path class="cls-7" d="M476.77,596.66v46.58c0,.29-.1.52-.23.52h-14.09c-.13,0-.23-.23-.23-.52v-46.58c0-.29.1-.52.23-.52h14.09c.13,0,.23.23.23.52Z"/>
    </g>
    <g id="SPLINE-22" data-name="SPLINE">
      <path class="cls-7" d="M476.77,548.7v46.58c0,.29-.1.52-.23.52h-14.09c-.13,0-.23-.23-.23-.52v-46.58c0-.29.1-.52.23-.52h14.09c.13,0,.23.23.23.52Z"/>
    </g>
    <g id="SPLINE-23" data-name="SPLINE">
      <path class="cls-7" d="M476.77,500.73v46.58c0,.29-.1.52-.23.52h-14.09c-.13,0-.23-.23-.23-.52v-46.58c0-.29.1-.52.23-.52h14.09c.13,0,.23.23.23.52Z"/>
    </g>
    <g id="SPLINE-24" data-name="SPLINE">
      <path class="cls-7" d="M476.77,452.77v46.58c0,.29-.1.52-.23.52h-14.09c-.13,0-.23-.23-.23-.52v-46.58c0-.29.1-.52.23-.52h14.09c.13,0,.23.23.23.52Z"/>
    </g>
    <g id="SPLINE-25" data-name="SPLINE">
      <path class="cls-7" d="M784.02,550.18h46.58c.29,0,.52.79.52,1.77v109.06c0,.98-.23,1.77-.52,1.77h-46.58c-.29,0-.52-.79-.52-1.77v-109.06c0-.98.23-1.77.52-1.77Z"/>
    </g>
    <g id="SPLINE-26" data-name="SPLINE">
      <path class="cls-7" d="M736.06,550.18h46.58c.29,0,.52.79.52,1.77v109.06c0,.98-.23,1.77-.52,1.77h-46.58c-.29,0-.52-.79-.52-1.77v-109.06c0-.98.23-1.77.52-1.77Z"/>
    </g>
    <g id="SPLINE-27" data-name="SPLINE">
      <path class="cls-7" d="M688.09,550.18h46.58c.29,0,.52.79.52,1.77v109.06c0,.98-.23,1.77-.52,1.77h-46.58c-.29,0-.52-.79-.52-1.77v-109.06c0-.98.23-1.77.52-1.77Z"/>
    </g>
    <g id="SPLINE-28" data-name="SPLINE">
      <path class="cls-7" d="M640.13,550.18h46.58c.29,0,.52.79.52,1.77v109.06c0,.98-.23,1.77-.52,1.77h-46.58c-.29,0-.52-.79-.52-1.77v-109.06c0-.98.23-1.77.52-1.77Z"/>
    </g>
    <g id="SPLINE-29" data-name="SPLINE">
      <path class="cls-7" d="M592.17,550.18h46.58c.29,0,.52.79.52,1.77v109.06c0,.98-.23,1.77-.52,1.77h-46.58c-.29,0-.52-.79-.52-1.77v-109.06c0-.98.23-1.77.52-1.77Z"/>
    </g>
    <g id="SPLINE-30" data-name="SPLINE">
      <path class="cls-7" d="M544.2,550.18h46.58c.29,0,.52.79.52,1.77v109.06c0,.98-.23,1.77-.52,1.77h-46.58c-.29,0-.52-.79-.52-1.77v-109.06c0-.98.23-1.77.52-1.77Z"/>
    </g>
    <g id="SPLINE-31" data-name="SPLINE">
      <path class="cls-7" d="M496.24,550.18h46.58c.29,0,.52.79.52,1.77v109.06c0,.98-.23,1.77-.52,1.77h-46.58c-.29,0-.52-.79-.52-1.77v-109.06c0-.98.23-1.77.52-1.77Z"/>
    </g>
    <g>
      <polygon class="cls-9" points="133.83 23.01 128.51 17.68 128.51 647.52 133.83 647.52 133.83 23.01"/>
      <polygon class="cls-9" points="128.51 803.31 133.83 797.99 133.83 742.77 128.51 742.77 128.51 803.31"/>
    </g>
    <g id="SPLINE-32" data-name="SPLINE">
      <path class="cls-7" d="M451.03,797.99v-5.46c0-.45-.22-.81-.49-.81h-60.52c-.27,0-.49.36-.49.81v5.46"/>
    </g>
    <g id="SPLINE-33" data-name="SPLINE">
      <path class="cls-7" d="M421.71,791.76h27.95c.79,0,1.43-1.07,1.43-2.39v-5.23c0-1.32-.64-2.39-1.43-2.39h-27.95c-.79,0-1.43,1.07-1.43,2.39v5.23c0,1.32.64,2.39,1.43,2.39Z"/>
    </g>
    <g id="SPLINE-34" data-name="SPLINE">
      <path class="cls-7" d="M390.9,791.76h27.95c.79,0,1.43-1.07,1.43-2.39v-5.23c0-1.32-.64-2.39-1.43-2.39h-27.95c-.79,0-1.43,1.07-1.43,2.39v5.23c0,1.32.64,2.39,1.43,2.39Z"/>
    </g>
    <g id="SPLINE-35" data-name="SPLINE">
      <path class="cls-7" d="M449.81,781.78h-2.69c-1.15,0-2.08-1.56-2.08-3.47v-12.83c0-1.92.93-3.47,2.08-3.47h2.69c.59,0,1.07.8,1.07,1.78v16.2c0,.98-.48,1.78-1.07,1.78Z"/>
    </g>
    <g id="SPLINE-36" data-name="SPLINE">
      <path class="cls-7" d="M390.82,762.01h2.69c1.15,0,2.08,1.56,2.08,3.47v12.83c0,1.92-.93,3.47-2.08,3.47h-2.69c-.59,0-1.07-.8-1.07-1.78v-16.2c0-.98.48-1.78,1.07-1.78Z"/>
    </g>
    <g id="SPLINE-37" data-name="SPLINE">
      <line class="cls-7" x1="389.86" y1="753.58" x2="389.86" y2="763.01"/>
    </g>
    <g id="SPLINE-38" data-name="SPLINE">
      <line class="cls-7" x1="389.86" y1="780.78" x2="389.86" y2="782.5"/>
    </g>
    <g id="SPLINE-39" data-name="SPLINE">
      <line class="cls-7" x1="450.72" y1="782.54" x2="450.72" y2="780.89"/>
    </g>
    <g id="SPLINE-40" data-name="SPLINE">
      <line class="cls-7" x1="450.72" y1="762.88" x2="450.72" y2="753.58"/>
    </g>
    <g id="SPLINE-41" data-name="SPLINE">
      <line class="cls-7" x1="420.34" y1="753.58" x2="420.34" y2="790.29"/>
    </g>
    <g id="SPLINE-42" data-name="SPLINE">
      <path class="cls-7" d="M389.86,753.58c0-.64.31-1.17.7-1.17h29.09c.38,0,.7.52.7,1.17"/>
    </g>
    <g id="SPLINE-43" data-name="SPLINE">
      <path class="cls-7" d="M420.34,753.58c0-.64.31-1.17.69-1.17h28.99c.38,0,.69.52.69,1.17"/>
    </g>
    <g id="SPLINE-44" data-name="SPLINE">
      <path class="cls-7" d="M389.86,753h-4.83c-.16,0-.29.22-.29.49v43.95c0,.27.13.49.29.49h70.71c.16,0,.29-.22.29-.49v-43.95c0-.27-.13-.49-.29-.49h-5.11"/>
    </g>
    <g id="SPLINE-45" data-name="SPLINE">
      <path class="cls-7" d="M336.68,766.76h43.74c.31,0,.55-.16.55-.36v-19.79c0-.2-.25-.36-.55-.36h-43.74c-.31,0-.55.16-.55.36v19.79c0,.2.25.36.55.36Z"/>
    </g>
    <g id="SPLINE-46" data-name="SPLINE">
      <path class="cls-7" d="M143.31,795.33h60.74c.42,0,.77-.16.77-.36v-19.79c0-.2-.34-.36-.77-.36h-60.74c-.42,0-.77.16-.77.36v19.79c0,.2.34.36.77.36Z"/>
    </g>
    <g id="SPLINE-47" data-name="SPLINE">
      <path class="cls-7" d="M37.13,795.2h60.74c.42,0,.77-.43.77-.95v-52.04c0-.52-.34-.95-.77-.95h-60.74c-.42,0-.77.43-.77.95v52.04c0,.52.34.95.77.95Z"/>
    </g>
    <g id="SPLINE-48" data-name="SPLINE">
      <path class="cls-7" d="M37.13,741.77h60.74c.42,0,.77-.16.77-.36v-19.79c0-.2-.34-.36-.77-.36h-60.74c-.42,0-.77.16-.77.36v19.79c0,.2.34.36.77.36Z"/>
    </g>
    <g id="SPLINE-49" data-name="SPLINE">
      <path class="cls-7" d="M37.13,721.78h60.74c.42,0,.77-.16.77-.36v-19.79c0-.2-.34-.36-.77-.36h-60.74c-.42,0-.77.16-.77.36v19.79c0,.2.34.36.77.36Z"/>
    </g>
    <g id="LINE-56" data-name="LINE">
      <line class="cls-6" x1="169.38" y1="128.08" x2="169.38" y2="160.32"/>
    </g>
    <g id="LINE-57" data-name="LINE">
      <line class="cls-2" x1="167.8" y1="161.87" x2="143.41" y2="161.87"/>
    </g>
    <g id="LINE-58" data-name="LINE">
      <line class="cls-2" x1="143.41" y1="161.87" x2="143.09" y2="161.84"/>
    </g>
    <g id="LINE-59" data-name="LINE">
      <line class="cls-2" x1="143.09" y1="161.84" x2="142.79" y2="161.75"/>
    </g>
    <g id="LINE-60" data-name="LINE">
      <line class="cls-2" x1="142.79" y1="161.75" x2="142.53" y2="161.6"/>
    </g>
    <g id="LINE-61" data-name="LINE">
      <line class="cls-2" x1="142.53" y1="161.6" x2="142.29" y2="161.42"/>
    </g>
    <g id="LINE-62" data-name="LINE">
      <line class="cls-2" x1="142.29" y1="161.42" x2="142.1" y2="161.19"/>
    </g>
    <g id="LINE-63" data-name="LINE">
      <line class="cls-2" x1="142.1" y1="161.19" x2="141.96" y2="160.92"/>
    </g>
    <g id="LINE-64" data-name="LINE">
      <line class="cls-2" x1="141.96" y1="160.92" x2="141.86" y2="160.63"/>
    </g>
    <g id="LINE-65" data-name="LINE">
      <line class="cls-2" x1="141.86" y1="160.63" x2="141.83" y2="160.32"/>
    </g>
    <g id="LINE-66" data-name="LINE">
      <line class="cls-2" x1="141.83" y1="160.32" x2="141.83" y2="128.08"/>
    </g>
    <g id="LINE-67" data-name="LINE">
      <line class="cls-2" x1="141.83" y1="128.08" x2="141.86" y2="127.76"/>
    </g>
    <g id="LINE-68" data-name="LINE">
      <line class="cls-2" x1="141.86" y1="127.76" x2="141.96" y2="127.47"/>
    </g>
    <g id="LINE-69" data-name="LINE">
      <line class="cls-2" x1="141.96" y1="127.47" x2="142.1" y2="127.21"/>
    </g>
    <g id="LINE-70" data-name="LINE">
      <line class="cls-2" x1="142.1" y1="127.21" x2="142.29" y2="126.98"/>
    </g>
    <g id="LINE-71" data-name="LINE">
      <line class="cls-2" x1="142.29" y1="126.98" x2="142.53" y2="126.79"/>
    </g>
    <g id="LINE-72" data-name="LINE">
      <line class="cls-2" x1="142.53" y1="126.79" x2="142.79" y2="126.65"/>
    </g>
    <g id="LINE-73" data-name="LINE">
      <line class="cls-2" x1="142.79" y1="126.65" x2="143.09" y2="126.56"/>
    </g>
    <g id="LINE-74" data-name="LINE">
      <line class="cls-2" x1="143.09" y1="126.56" x2="143.41" y2="126.53"/>
    </g>
    <g id="LINE-75" data-name="LINE">
      <line class="cls-2" x1="143.41" y1="126.53" x2="167.8" y2="126.53"/>
    </g>
    <g id="LINE-76" data-name="LINE">
      <line class="cls-2" x1="147.1" y1="143.54" x2="147.1" y2="128.54"/>
    </g>
    <g id="LINE-77" data-name="LINE">
      <line class="cls-2" x1="147.1" y1="128.54" x2="147.11" y2="128.38"/>
    </g>
    <g id="LINE-78" data-name="LINE">
      <line class="cls-2" x1="147.11" y1="128.38" x2="147.16" y2="128.24"/>
    </g>
    <g id="LINE-79" data-name="LINE">
      <line class="cls-2" x1="147.16" y1="128.24" x2="147.23" y2="128.11"/>
    </g>
    <g id="LINE-80" data-name="LINE">
      <line class="cls-2" x1="147.23" y1="128.11" x2="147.32" y2="128"/>
    </g>
    <g id="LINE-81" data-name="LINE">
      <line class="cls-2" x1="147.32" y1="128" x2="147.44" y2="127.9"/>
    </g>
    <g id="LINE-82" data-name="LINE">
      <line class="cls-2" x1="147.44" y1="127.9" x2="147.57" y2="127.83"/>
    </g>
    <g id="LINE-83" data-name="LINE">
      <line class="cls-2" x1="147.57" y1="127.83" x2="147.72" y2="127.79"/>
    </g>
    <g id="LINE-84" data-name="LINE">
      <line class="cls-2" x1="147.72" y1="127.79" x2="147.87" y2="127.77"/>
    </g>
    <g id="LINE-85" data-name="LINE">
      <line class="cls-2" x1="147.87" y1="127.77" x2="167.5" y2="127.77"/>
    </g>
    <g id="LINE-86" data-name="LINE">
      <line class="cls-6" x1="168.28" y1="128.54" x2="168.28" y2="159.86"/>
    </g>
    <g id="LINE-87" data-name="LINE">
      <line class="cls-2" x1="167.5" y1="160.62" x2="147.87" y2="160.62"/>
    </g>
    <g id="LINE-88" data-name="LINE">
      <line class="cls-2" x1="147.87" y1="160.62" x2="147.72" y2="160.61"/>
    </g>
    <g id="LINE-89" data-name="LINE">
      <line class="cls-2" x1="147.72" y1="160.61" x2="147.57" y2="160.56"/>
    </g>
    <g id="LINE-90" data-name="LINE">
      <line class="cls-2" x1="147.57" y1="160.56" x2="147.44" y2="160.49"/>
    </g>
    <g id="LINE-91" data-name="LINE">
      <line class="cls-2" x1="147.44" y1="160.49" x2="147.32" y2="160.4"/>
    </g>
    <g id="LINE-92" data-name="LINE">
      <line class="cls-2" x1="147.32" y1="160.4" x2="147.23" y2="160.29"/>
    </g>
    <g id="LINE-93" data-name="LINE">
      <line class="cls-2" x1="147.23" y1="160.29" x2="147.16" y2="160.16"/>
    </g>
    <g id="LINE-94" data-name="LINE">
      <line class="cls-2" x1="147.16" y1="160.16" x2="147.11" y2="160.01"/>
    </g>
    <g id="LINE-95" data-name="LINE">
      <line class="cls-2" x1="147.11" y1="160.01" x2="147.1" y2="159.86"/>
    </g>
    <g id="LINE-96" data-name="LINE">
      <line class="cls-2" x1="147.1" y1="159.86" x2="147.1" y2="144.83"/>
    </g>
    <g id="LINE-97" data-name="LINE">
      <line class="cls-3" x1="144.65" y1="142.94" x2="144.82" y2="142.95"/>
    </g>
    <g id="LINE-98" data-name="LINE">
      <line class="cls-3" x1="144.82" y1="142.95" x2="144.98" y2="142.98"/>
    </g>
    <g id="LINE-99" data-name="LINE">
      <line class="cls-2" x1="144.98" y1="142.98" x2="145.13" y2="143.03"/>
    </g>
    <g id="LINE-100" data-name="LINE">
      <line class="cls-2" x1="145.13" y1="143.03" x2="145.28" y2="143.1"/>
    </g>
    <g id="LINE-101" data-name="LINE">
      <line class="cls-2" x1="145.28" y1="143.1" x2="145.53" y2="143.29"/>
    </g>
    <g id="LINE-102" data-name="LINE">
      <line class="cls-2" x1="145.53" y1="143.29" x2="145.72" y2="143.54"/>
    </g>
    <g id="LINE-103" data-name="LINE">
      <line class="cls-2" x1="145.69" y1="144.83" x2="145.49" y2="145.06"/>
    </g>
    <g id="LINE-104" data-name="LINE">
      <line class="cls-2" x1="145.49" y1="145.06" x2="145.25" y2="145.23"/>
    </g>
    <g id="LINE-105" data-name="LINE">
      <line class="cls-2" x1="145.25" y1="145.23" x2="144.97" y2="145.34"/>
    </g>
    <g id="LINE-106" data-name="LINE">
      <line class="cls-3" x1="144.97" y1="145.34" x2="144.65" y2="145.38"/>
    </g>
    <g id="LINE-107" data-name="LINE">
      <line class="cls-3" x1="144.65" y1="145.38" x2="144.4" y2="145.36"/>
    </g>
    <g id="LINE-108" data-name="LINE">
      <line class="cls-3" x1="144.4" y1="145.36" x2="144.17" y2="145.28"/>
    </g>
    <g id="LINE-109" data-name="LINE">
      <line class="cls-3" x1="144.17" y1="145.28" x2="143.96" y2="145.17"/>
    </g>
    <g id="LINE-110" data-name="LINE">
      <line class="cls-3" x1="143.96" y1="145.17" x2="143.77" y2="145.02"/>
    </g>
    <g id="LINE-111" data-name="LINE">
      <line class="cls-3" x1="143.77" y1="145.02" x2="143.62" y2="144.84"/>
    </g>
    <g id="LINE-112" data-name="LINE">
      <line class="cls-3" x1="143.62" y1="144.84" x2="143.51" y2="144.64"/>
    </g>
    <g id="LINE-113" data-name="LINE">
      <line class="cls-2" x1="143.51" y1="144.64" x2="143.43" y2="144.41"/>
    </g>
    <g id="LINE-114" data-name="LINE">
      <line class="cls-2" x1="143.43" y1="144.41" x2="143.41" y2="144.16"/>
    </g>
    <g id="LINE-115" data-name="LINE">
      <line class="cls-2" x1="143.41" y1="144.16" x2="143.43" y2="143.91"/>
    </g>
    <g id="LINE-116" data-name="LINE">
      <line class="cls-2" x1="143.43" y1="143.91" x2="143.51" y2="143.69"/>
    </g>
    <g id="LINE-117" data-name="LINE">
      <line class="cls-3" x1="143.51" y1="143.69" x2="143.62" y2="143.48"/>
    </g>
    <g id="LINE-118" data-name="LINE">
      <line class="cls-3" x1="143.62" y1="143.48" x2="143.77" y2="143.3"/>
    </g>
    <g id="LINE-119" data-name="LINE">
      <line class="cls-3" x1="143.77" y1="143.3" x2="143.96" y2="143.15"/>
    </g>
    <g id="LINE-120" data-name="LINE">
      <line class="cls-3" x1="143.96" y1="143.15" x2="144.17" y2="143.04"/>
    </g>
    <g id="LINE-121" data-name="LINE">
      <line class="cls-3" x1="144.17" y1="143.04" x2="144.4" y2="142.96"/>
    </g>
    <g id="LINE-122" data-name="LINE">
      <line class="cls-3" x1="144.4" y1="142.96" x2="144.65" y2="142.94"/>
    </g>
    <g id="LINE-123" data-name="LINE">
      <line class="cls-3" x1="144.65" y1="142.94" x2="144.65" y2="142.94"/>
    </g>
    <g id="LINE-124" data-name="LINE">
      <line class="cls-2" x1="145.9" y1="139.03" x2="145.87" y2="138.78"/>
    </g>
    <g id="LINE-125" data-name="LINE">
      <line class="cls-2" x1="145.87" y1="138.78" x2="145.8" y2="138.55"/>
    </g>
    <g id="LINE-126" data-name="LINE">
      <line class="cls-2" x1="145.8" y1="138.55" x2="145.68" y2="138.34"/>
    </g>
    <g id="LINE-127" data-name="LINE">
      <line class="cls-2" x1="145.68" y1="138.34" x2="145.53" y2="138.16"/>
    </g>
    <g id="LINE-128" data-name="LINE">
      <line class="cls-2" x1="145.53" y1="138.16" x2="145.35" y2="138.01"/>
    </g>
    <g id="LINE-129" data-name="LINE">
      <line class="cls-2" x1="145.35" y1="138.01" x2="145.14" y2="137.9"/>
    </g>
    <g id="LINE-130" data-name="LINE">
      <line class="cls-3" x1="145.14" y1="137.9" x2="144.9" y2="137.83"/>
    </g>
    <g id="LINE-131" data-name="LINE">
      <line class="cls-3" x1="144.9" y1="137.83" x2="144.65" y2="137.81"/>
    </g>
    <g id="LINE-132" data-name="LINE">
      <line class="cls-3" x1="144.65" y1="137.81" x2="144.4" y2="137.83"/>
    </g>
    <g id="LINE-133" data-name="LINE">
      <line class="cls-3" x1="144.4" y1="137.83" x2="144.17" y2="137.9"/>
    </g>
    <g id="LINE-134" data-name="LINE">
      <line class="cls-3" x1="144.17" y1="137.9" x2="143.96" y2="138.01"/>
    </g>
    <g id="LINE-135" data-name="LINE">
      <line class="cls-3" x1="143.96" y1="138.01" x2="143.77" y2="138.16"/>
    </g>
    <g id="LINE-136" data-name="LINE">
      <line class="cls-3" x1="143.77" y1="138.16" x2="143.62" y2="138.34"/>
    </g>
    <g id="LINE-137" data-name="LINE">
      <line class="cls-3" x1="143.62" y1="138.34" x2="143.51" y2="138.55"/>
    </g>
    <g id="LINE-138" data-name="LINE">
      <line class="cls-2" x1="143.51" y1="138.55" x2="143.43" y2="138.78"/>
    </g>
    <g id="LINE-139" data-name="LINE">
      <line class="cls-2" x1="143.43" y1="138.78" x2="143.41" y2="139.03"/>
    </g>
    <g id="LINE-140" data-name="LINE">
      <line class="cls-2" x1="143.41" y1="139.03" x2="143.43" y2="139.27"/>
    </g>
    <g id="LINE-141" data-name="LINE">
      <line class="cls-2" x1="143.43" y1="139.27" x2="143.51" y2="139.5"/>
    </g>
    <g id="LINE-142" data-name="LINE">
      <line class="cls-3" x1="143.51" y1="139.5" x2="143.62" y2="139.71"/>
    </g>
    <g id="LINE-143" data-name="LINE">
      <line class="cls-3" x1="143.62" y1="139.71" x2="143.77" y2="139.89"/>
    </g>
    <g id="LINE-144" data-name="LINE">
      <line class="cls-3" x1="143.77" y1="139.89" x2="143.96" y2="140.04"/>
    </g>
    <g id="LINE-145" data-name="LINE">
      <line class="cls-3" x1="143.96" y1="140.04" x2="144.17" y2="140.15"/>
    </g>
    <g id="LINE-146" data-name="LINE">
      <line class="cls-3" x1="144.17" y1="140.15" x2="144.4" y2="140.22"/>
    </g>
    <g id="LINE-147" data-name="LINE">
      <line class="cls-3" x1="144.4" y1="140.22" x2="144.65" y2="140.25"/>
    </g>
    <g id="LINE-148" data-name="LINE">
      <line class="cls-3" x1="144.65" y1="140.25" x2="144.9" y2="140.22"/>
    </g>
    <g id="LINE-149" data-name="LINE">
      <line class="cls-3" x1="144.9" y1="140.22" x2="145.14" y2="140.15"/>
    </g>
    <g id="LINE-150" data-name="LINE">
      <line class="cls-2" x1="145.14" y1="140.15" x2="145.35" y2="140.04"/>
    </g>
    <g id="LINE-151" data-name="LINE">
      <line class="cls-2" x1="145.35" y1="140.04" x2="145.53" y2="139.89"/>
    </g>
    <g id="LINE-152" data-name="LINE">
      <line class="cls-2" x1="145.53" y1="139.89" x2="145.68" y2="139.71"/>
    </g>
    <g id="LINE-153" data-name="LINE">
      <line class="cls-2" x1="145.68" y1="139.71" x2="145.8" y2="139.5"/>
    </g>
    <g id="LINE-154" data-name="LINE">
      <line class="cls-2" x1="145.8" y1="139.5" x2="145.87" y2="139.27"/>
    </g>
    <g id="LINE-155" data-name="LINE">
      <line class="cls-2" x1="145.87" y1="139.27" x2="145.9" y2="139.03"/>
    </g>
    <g id="LINE-156" data-name="LINE">
      <line class="cls-2" x1="145.9" y1="139.03" x2="145.9" y2="139.03"/>
    </g>
    <g id="LINE-157" data-name="LINE">
      <line class="cls-2" x1="145.9" y1="149.37" x2="145.87" y2="149.13"/>
    </g>
    <g id="LINE-158" data-name="LINE">
      <line class="cls-2" x1="145.87" y1="149.13" x2="145.8" y2="148.9"/>
    </g>
    <g id="LINE-159" data-name="LINE">
      <line class="cls-2" x1="145.8" y1="148.9" x2="145.68" y2="148.69"/>
    </g>
    <g id="LINE-160" data-name="LINE">
      <line class="cls-2" x1="145.68" y1="148.69" x2="145.53" y2="148.51"/>
    </g>
    <g id="LINE-161" data-name="LINE">
      <line class="cls-2" x1="145.53" y1="148.51" x2="145.35" y2="148.36"/>
    </g>
    <g id="LINE-162" data-name="LINE">
      <line class="cls-2" x1="145.35" y1="148.36" x2="145.14" y2="148.25"/>
    </g>
    <g id="LINE-163" data-name="LINE">
      <line class="cls-3" x1="145.14" y1="148.25" x2="144.9" y2="148.18"/>
    </g>
    <g id="LINE-164" data-name="LINE">
      <line class="cls-3" x1="144.9" y1="148.18" x2="144.65" y2="148.15"/>
    </g>
    <g id="LINE-165" data-name="LINE">
      <line class="cls-3" x1="144.65" y1="148.15" x2="144.4" y2="148.18"/>
    </g>
    <g id="LINE-166" data-name="LINE">
      <line class="cls-3" x1="144.4" y1="148.18" x2="144.17" y2="148.25"/>
    </g>
    <g id="LINE-167" data-name="LINE">
      <line class="cls-3" x1="144.17" y1="148.25" x2="143.96" y2="148.36"/>
    </g>
    <g id="LINE-168" data-name="LINE">
      <line class="cls-3" x1="143.96" y1="148.36" x2="143.77" y2="148.51"/>
    </g>
    <g id="LINE-169" data-name="LINE">
      <line class="cls-3" x1="143.77" y1="148.51" x2="143.62" y2="148.69"/>
    </g>
    <g id="LINE-170" data-name="LINE">
      <line class="cls-3" x1="143.62" y1="148.69" x2="143.51" y2="148.9"/>
    </g>
    <g id="LINE-171" data-name="LINE">
      <line class="cls-2" x1="143.51" y1="148.9" x2="143.43" y2="149.13"/>
    </g>
    <g id="LINE-172" data-name="LINE">
      <line class="cls-2" x1="143.43" y1="149.13" x2="143.41" y2="149.37"/>
    </g>
    <g id="LINE-173" data-name="LINE">
      <line class="cls-2" x1="143.41" y1="149.37" x2="143.43" y2="149.62"/>
    </g>
    <g id="LINE-174" data-name="LINE">
      <line class="cls-2" x1="143.43" y1="149.62" x2="143.51" y2="149.85"/>
    </g>
    <g id="LINE-175" data-name="LINE">
      <line class="cls-3" x1="143.51" y1="149.85" x2="143.62" y2="150.05"/>
    </g>
    <g id="LINE-176" data-name="LINE">
      <line class="cls-3" x1="143.62" y1="150.05" x2="143.77" y2="150.23"/>
    </g>
    <g id="LINE-177" data-name="LINE">
      <line class="cls-3" x1="143.77" y1="150.23" x2="143.96" y2="150.38"/>
    </g>
    <g id="LINE-178" data-name="LINE">
      <line class="cls-3" x1="143.96" y1="150.38" x2="144.17" y2="150.5"/>
    </g>
    <g id="LINE-179" data-name="LINE">
      <line class="cls-3" x1="144.17" y1="150.5" x2="144.4" y2="150.57"/>
    </g>
    <g id="LINE-180" data-name="LINE">
      <line class="cls-3" x1="144.4" y1="150.57" x2="144.65" y2="150.59"/>
    </g>
    <g id="LINE-181" data-name="LINE">
      <line class="cls-3" x1="144.65" y1="150.59" x2="144.9" y2="150.57"/>
    </g>
    <g id="LINE-182" data-name="LINE">
      <line class="cls-3" x1="144.9" y1="150.57" x2="145.14" y2="150.5"/>
    </g>
    <g id="LINE-183" data-name="LINE">
      <line class="cls-2" x1="145.14" y1="150.5" x2="145.35" y2="150.38"/>
    </g>
    <g id="LINE-184" data-name="LINE">
      <line class="cls-2" x1="145.35" y1="150.38" x2="145.53" y2="150.23"/>
    </g>
    <g id="LINE-185" data-name="LINE">
      <line class="cls-2" x1="145.53" y1="150.23" x2="145.68" y2="150.05"/>
    </g>
    <g id="LINE-186" data-name="LINE">
      <line class="cls-2" x1="145.68" y1="150.05" x2="145.8" y2="149.85"/>
    </g>
    <g id="LINE-187" data-name="LINE">
      <line class="cls-2" x1="145.8" y1="149.85" x2="145.87" y2="149.62"/>
    </g>
    <g id="LINE-188" data-name="LINE">
      <line class="cls-2" x1="145.87" y1="149.62" x2="145.9" y2="149.37"/>
    </g>
    <g id="LINE-189" data-name="LINE">
      <line class="cls-2" x1="145.9" y1="149.37" x2="145.9" y2="149.37"/>
    </g>
    <g id="LINE-190" data-name="LINE">
      <line class="cls-2" x1="149.14" y1="143.54" x2="149.14" y2="131.2"/>
    </g>
    <g id="LINE-191" data-name="LINE">
      <line class="cls-2" x1="149.14" y1="131.2" x2="149.17" y2="130.89"/>
    </g>
    <g id="LINE-192" data-name="LINE">
      <line class="cls-2" x1="149.17" y1="130.89" x2="149.27" y2="130.6"/>
    </g>
    <g id="LINE-193" data-name="LINE">
      <line class="cls-2" x1="149.27" y1="130.6" x2="149.41" y2="130.34"/>
    </g>
    <g id="LINE-194" data-name="LINE">
      <line class="cls-2" x1="149.41" y1="130.34" x2="149.61" y2="130.11"/>
    </g>
    <g id="LINE-195" data-name="LINE">
      <line class="cls-2" x1="149.61" y1="130.11" x2="149.84" y2="129.92"/>
    </g>
    <g id="LINE-196" data-name="LINE">
      <line class="cls-2" x1="149.84" y1="129.92" x2="150.11" y2="129.78"/>
    </g>
    <g id="LINE-197" data-name="LINE">
      <line class="cls-2" x1="150.11" y1="129.78" x2="150.4" y2="129.68"/>
    </g>
    <g id="LINE-198" data-name="LINE">
      <line class="cls-2" x1="150.4" y1="129.68" x2="150.72" y2="129.65"/>
    </g>
    <g id="LINE-199" data-name="LINE">
      <line class="cls-2" x1="150.72" y1="129.65" x2="164.7" y2="129.65"/>
    </g>
    <g id="LINE-200" data-name="LINE">
      <line class="cls-6" x1="166.28" y1="131.2" x2="166.28" y2="157"/>
    </g>
    <g id="LINE-201" data-name="LINE">
      <line class="cls-2" x1="164.7" y1="158.55" x2="150.72" y2="158.55"/>
    </g>
    <g id="LINE-202" data-name="LINE">
      <line class="cls-2" x1="150.72" y1="158.55" x2="150.4" y2="158.52"/>
    </g>
    <g id="LINE-203" data-name="LINE">
      <line class="cls-2" x1="150.4" y1="158.52" x2="150.11" y2="158.43"/>
    </g>
    <g id="LINE-204" data-name="LINE">
      <line class="cls-2" x1="150.11" y1="158.43" x2="149.84" y2="158.28"/>
    </g>
    <g id="LINE-205" data-name="LINE">
      <line class="cls-2" x1="149.84" y1="158.28" x2="149.61" y2="158.09"/>
    </g>
    <g id="LINE-206" data-name="LINE">
      <line class="cls-2" x1="149.61" y1="158.09" x2="149.41" y2="157.87"/>
    </g>
    <g id="LINE-207" data-name="LINE">
      <line class="cls-2" x1="149.41" y1="157.87" x2="149.27" y2="157.6"/>
    </g>
    <g id="LINE-208" data-name="LINE">
      <line class="cls-2" x1="149.27" y1="157.6" x2="149.17" y2="157.31"/>
    </g>
    <g id="LINE-209" data-name="LINE">
      <line class="cls-2" x1="149.17" y1="157.31" x2="149.14" y2="157"/>
    </g>
    <g id="LINE-210" data-name="LINE">
      <line class="cls-2" x1="149.14" y1="157" x2="149.14" y2="144.83"/>
    </g>
    <g id="LWPOLYLINE-16" data-name="LWPOLYLINE">
      <rect class="cls-5" x="133.84" y="184.69" width="35.53" height="156.73"/>
    </g>
    <g id="LINE-211" data-name="LINE">
      <line class="cls-7" x1="170.09" y1="184.88" x2="169.37" y2="184.88"/>
    </g>
    <g id="SPLINE-50" data-name="SPLINE">
      <path class="cls-5" d="M176.47,110.44v73.42c0,.45-.3.82-.67.82h-41.3c-.37,0-.67-.37-.67-.82v-73.42c0-.45.3-.82.67-.82h41.3c.37,0,.67.37.67.82Z"/>
    </g>
    <g id="LINE-212" data-name="LINE">
      <line class="cls-7" x1="170.09" y1="109.56" x2="169.37" y2="109.56"/>
    </g>
    <line class="cls-2" x1="456.35" y1="287" x2="487.35" y2="287"/>
    <line class="cls-2" x1="456.35" y1="338.09" x2="487.35" y2="338.09"/>
    <line class="cls-2" x1="456.35" y1="384.81" x2="487.35" y2="384.81"/>
    <line class="cls-2" x1="157.58" y1="288.17" x2="131.17" y2="288.17"/>
    <line class="cls-2" x1="157.58" y1="247.11" x2="131.17" y2="247.11"/>
    <line class="cls-2" x1="157.58" y1="206.05" x2="131.17" y2="206.05"/>
    <line class="cls-5" x1="157.58" y1="123.66" x2="157.58" y2="329.37"/>
    <circle class="cls-3" cx="153.75" cy="144.52" r="1.86"/>
    <line class="cls-2" x1="157.58" y1="164.99" x2="131.17" y2="164.99"/>
  </g>
  <g id="Poly-Header">
    <rect class="cls-7" x="135.05" y="613.85" width="31.14" height="33.38"/>
    <rect class="cls-7" x="257.71" y="26.76" width="72.95" height="55.78"/>
    <rect class="cls-7" x="196.25" y="25.11" width="58.12" height="41"/>
    <line class="cls-7" x1="495.72" y1="566.11" x2="831.12" y2="566.11"/>
    <line class="cls-7" x1="495.72" y1="578.28" x2="831.12" y2="578.28"/>
    <line class="cls-7" x1="495.72" y1="590.46" x2="831.12" y2="590.46"/>
    <line class="cls-7" x1="495.72" y1="602.63" x2="831.12" y2="602.63"/>
    <line class="cls-7" x1="495.72" y1="614.81" x2="831.12" y2="614.81"/>
    <line class="cls-7" x1="495.72" y1="626.98" x2="831.12" y2="626.98"/>
    <line class="cls-7" x1="495.72" y1="639.15" x2="831.12" y2="639.15"/>
    <line class="cls-7" x1="495.72" y1="651.33" x2="831.12" y2="651.33"/>
    <rect class="cls-7" x="536.11" y="274.73" width="88.55" height="35.04"/>
    <g>
      <rect class="cls-7" x="497.3" y="717.5" width="118.16" height="12.81"/>
      <rect class="cls-7" x="497.3" y="730.31" width="59.08" height="8.98"/>
      <rect class="cls-7" x="497.3" y="739.29" width="59.08" height="8.98"/>
      <rect class="cls-7" x="497.3" y="748.27" width="59.08" height="8.98"/>
      <rect class="cls-7" x="497.3" y="757.25" width="59.08" height="23.94"/>
      <rect class="cls-7" x="556.38" y="730.31" width="59.08" height="8.98"/>
      <rect class="cls-7" x="556.38" y="739.29" width="59.08" height="8.98"/>
      <rect class="cls-7" x="556.38" y="748.27" width="59.08" height="8.98"/>
      <rect class="cls-7" x="556.38" y="757.25" width="59.08" height="23.94"/>
    </g>
    <g>
      <rect class="cls-7" x="625.02" y="717.5" width="118.16" height="12.81"/>
      <rect class="cls-7" x="625.02" y="730.31" width="59.08" height="8.98"/>
      <rect class="cls-7" x="625.02" y="739.29" width="59.08" height="8.98"/>
      <rect class="cls-7" x="625.02" y="748.27" width="59.08" height="8.98"/>
      <rect class="cls-7" x="625.02" y="757.25" width="59.08" height="23.94"/>
      <rect class="cls-7" x="684.1" y="730.31" width="59.08" height="8.98"/>
      <rect class="cls-7" x="684.1" y="739.29" width="59.08" height="8.98"/>
      <rect class="cls-7" x="684.1" y="748.27" width="59.08" height="8.98"/>
      <rect class="cls-7" x="684.1" y="757.25" width="59.08" height="23.94"/>
    </g>
    <rect class="cls-7" x="624.66" y="274.73" width="88.55" height="35.04"/>
    <rect class="cls-7" x="712.94" y="274.73" width="88.55" height="35.04"/>
    <rect class="cls-7" x="536.11" y="309.77" width="88.55" height="35.04"/>
    <rect class="cls-7" x="624.66" y="309.77" width="88.55" height="35.04"/>
    <rect class="cls-7" x="712.94" y="309.77" width="88.55" height="35.04"/>
    <rect class="cls-7" x="536.11" y="344.81" width="88.55" height="35.04"/>
    <rect class="cls-7" x="624.66" y="344.81" width="88.55" height="35.04"/>
    <rect class="cls-7" x="712.94" y="344.81" width="88.55" height="35.04"/>
  </g>
</svg>