{
	"asset":{
		"generator":"Khronos glTF Blender I/O v4.2.70",
		"version":"2.0"
	},
	"scene":0,
	"scenes":[
		{
			"name":"Scene",
			"nodes":[
				0
			]
		}
	],
	"nodes":[
		{
			"mesh":0,
			"name":"Part 1.002",
			"scale":[
				1000.0015869140625,
				1000,
				1000
			]
		}
	],
	"materials":[
		{
			"doubleSided":true,
			"name":"Material.003",
			"pbrMetallicRoughness":{
				"baseColorTexture":{
					"index":0
				},
				"metallicFactor":0,
				"roughnessFactor":0.5
			}
		}
	],
	"meshes":[
		{
			"name":"mesh0_mesh",
			"primitives":[
				{
					"attributes":{
						"POSITION":0,
						"NORMAL":1,
						"TEXCOORD_0":2
					},
					"indices":3,
					"material":0
				}
			]
		}
	],
	"textures":[
		{
			"sampler":0,
			"source":0
		}
	],
	"images":[
		{
			"mimeType":"image/png",
			"name":"occ2",
			"uri":"occ2.png"
		}
	],
	"accessors":[
		{
			"bufferView":0,
			"componentType":5126,
			"count":6099,
			"max":[
				0.06684564054012299,
				0.0729999989271164,
				0.14677086472511292
			],
			"min":[
				-0.07651713490486145,
				-0.006200000178068876,
				-0.14094063639640808
			],
			"type":"VEC3"
		},
		{
			"bufferView":1,
			"componentType":5126,
			"count":6099,
			"type":"VEC3"
		},
		{
			"bufferView":2,
			"componentType":5126,
			"count":6099,
			"type":"VEC2"
		},
		{
			"bufferView":3,
			"componentType":5123,
			"count":15534,
			"type":"SCALAR"
		}
	],
	"bufferViews":[
		{
			"buffer":0,
			"byteLength":73188,
			"byteOffset":0,
			"target":34962
		},
		{
			"buffer":0,
			"byteLength":73188,
			"byteOffset":73188,
			"target":34962
		},
		{
			"buffer":0,
			"byteLength":48792,
			"byteOffset":146376,
			"target":34962
		},
		{
			"buffer":0,
			"byteLength":31068,
			"byteOffset":195168,
			"target":34963
		}
	],
	"samplers":[
		{
			"magFilter":9729,
			"minFilter":9987
		}
	],
	"buffers":[
		{
			"byteLength":226236,
			"uri":"iLab.bin"
		}
	]
}
