{
	"asset":{
		"generator":"Khronos glTF Blender I/O v4.2.70",
		"version":"2.0"
	},
	"scene":0,
	"scenes":[
		{
			"name":"Scene",
			"nodes":[
				0
			]
		}
	],
	"nodes":[
		{
			"mesh":0,
			"name":"Part Studio 1 (1)"
		}
	],
	"materials":[
		{
			"doubleSided":true,
			"name":"Material.001",
			"pbrMetallicRoughness":{
				"baseColorTexture":{
					"index":0
				},
				"metallicFactor":0
			}
		}
	],
	"meshes":[
		{
			"name":"Part Studio 1 (1)",
			"primitives":[
				{
					"attributes":{
						"POSITION":0,
						"NORMAL":1,
						"TEXCOORD_0":2
					},
					"indices":3,
					"material":0
				}
			]
		}
	],
	"textures":[
		{
			"sampler":0,
			"source":0
		}
	],
	"images":[
		{
			"mimeType":"image/png",
			"name":"Untitled",
			"uri":"Untitled.png"
		}
	],
	"accessors":[
		{
			"bufferView":0,
			"componentType":5126,
			"count":1459,
			"max":[
				66.84564208984375,
				73,
				146.77085876464844
			],
			"min":[
				-61.758934020996094,
				-6.200000286102295,
				-130.38168334960938
			],
			"type":"VEC3"
		},
		{
			"bufferView":1,
			"componentType":5126,
			"count":1459,
			"type":"VEC3"
		},
		{
			"bufferView":2,
			"componentType":5126,
			"count":1459,
			"type":"VEC2"
		},
		{
			"bufferView":3,
			"componentType":5123,
			"count":3666,
			"type":"SCALAR"
		}
	],
	"bufferViews":[
		{
			"buffer":0,
			"byteLength":17508,
			"byteOffset":0,
			"target":34962
		},
		{
			"buffer":0,
			"byteLength":17508,
			"byteOffset":17508,
			"target":34962
		},
		{
			"buffer":0,
			"byteLength":11672,
			"byteOffset":35016,
			"target":34962
		},
		{
			"buffer":0,
			"byteLength":7332,
			"byteOffset":46688,
			"target":34963
		}
	],
	"samplers":[
		{
			"magFilter":9729,
			"minFilter":9987
		}
	],
	"buffers":[
		{
			"byteLength":54020,
			"uri":"main.bin"
		}
	]
}
