<?xml version="1.0" encoding="UTF-8"?>
<svg id="Layer_1" data-name="Layer 1" xmlns="http://www.w3.org/2000/svg" viewBox="0 0 874.83 983.33">
  <defs>
    <style>
      .cls-1 {
        fill: #fff;
        fill-rule: evenodd;
      }
    </style>
  </defs>
  <polygon class="cls-1" points="382.25 624.58 279.46 605.74 444.05 388.09 349.23 371.03 350.06 370.08 541.97 110.59 542.44 110.59 820.53 93.72 593.42 334.75 698.41 353.65 502.21 565.96 613.37 585.99 170.49 962.12 382.25 624.58"/>
  <path d="M819.3,94.3l-226.88,240.78,105,18.89-196.19,212.32,111.02,20-439.61,373.35,210.43-335.42-102.72-18.82,164.6-217.66-94.75-17.04.25-.28,191.79-259.32h.21l276.86-16.79M821.76,93.15l-2.52.15-276.83,16.79h-.69l-.3.41-191.76,259.29-.22.25-1.16,1.33,1.74.31,93.15,16.76-163.61,216.36-.98,1.29,1.6.29,101.27,18.56-209.65,334.17-3.44,5.49,4.94-4.19,439.61-373.35,1.61-1.37-2.08-.38-109.22-19.67,194.96-210.98,1.24-1.34-1.8-.32-103.18-18.57,225.61-239.44,1.73-1.84h0Z"/>
</svg>