<?xml version="1.0" encoding="UTF-8"?>
<svg id="Layer_1" data-name="Layer 1" xmlns="http://www.w3.org/2000/svg" viewBox="0 0 874.83 981.33">
  <defs>
    <style>
      .cls-1 {
        fill: #fff;
      }
    </style>
  </defs>
  <g>
    <path class="cls-1" d="M396.46,873.37c-4.39,0-9.49-.3-15.16-.89-52.47-5.48-113.21-42.21-147.69-89.33-39.96-54.61-54.72-121.22-42.68-192.63,10.85-64.33,42.84-128.1,90.09-179.55l.26-.28,5.93,2.99v46.04c78.49-34.53,105.92-120.37,105.39-189.34-.1-12.47-.44-24.28-.77-35.69-1.73-59.37-3.1-106.27,33.13-165.84.23-.37,24.72-37.22,33.03-37.22.72,0,1.32.26,1.78.78l.11.13v.17c.6,8.1-1.06,16.48-2.67,24.59-1.15,5.8-2.24,11.28-2.58,16.68-5.03,80.77,25.09,141.08,56.97,204.93,12.8,25.63,26.03,52.13,37.2,80.53,35.82,91.14,48.48,173.68,38.68,252.32.54.47,1.13.71,1.8.71,5.49,0,14.55-15.96,18.08-23.7,19.36-42.41,14.71-80.47,9.79-120.75-1.71-13.96-3.47-28.39-4.24-43.26-.03-.54-.1-1.23-.19-1.99-.35-3.22-.83-7.63,1.01-9.67.65-.72,1.53-1.09,2.62-1.09.4,0,.83.05,1.28.15,5.26.84,17.87,17.63,26.89,30.19l.79,1.09c32.32,44.84,53.44,91.61,62.76,139.03,10.27,52.25,5.59,103.07-13.91,151.04-14.12,34.73-38.86,67.53-69.69,92.37-32.26,26-68.9,41.98-105.96,46.22l-.68.08c-3.5.4-10.01,1.16-16.19,1.16-9.36,0-14.69-1.75-15.85-5.19-6.06-18.01,20.04-30.54,37.32-38.83,4.56-2.19,8.5-4.08,11.25-5.75,33.14-20.14,55.72-47.78,65.33-79.95-1.59-2.24-3.45-3.24-6.02-3.24-1.88,0-3.92.54-6.07,1.1-2.31.61-4.7,1.24-7.17,1.28-.99.02-1.98.03-2.95.03-36.26,0-57.45-13.67-66.71-43.02-5.54-17.57-4.12-32.89-2.61-49.11.88-9.41,1.78-19.14,1.2-29.35-1.84-32.2-14.6-67.14-33.28-91.2l-.67-.87c-3-3.92-12.15-15.85-16.84-15.85-.51,0-.94.15-1.31.46-.87,28.65-12.5,55.97-34.6,81.23-8.61,9.84-18.45,18.03-27.96,25.95-12,9.99-24.4,20.31-34.29,33.95-35.33,48.77-33.5,103.67,5.03,150.64,5.24,6.39,12.47,12.48,19.47,18.38,15.14,12.77,30.8,25.97,29.49,44v.06s-.02.06-.02.06c-1.17,3.5-7.19,5.27-17.91,5.27Z"/>
    <path d="M457.98,32.13c.56,0,1.04.19,1.4.61,1,13.64-4.44,27.97-5.27,41.2-7.08,113.67,55.5,187.21,94.2,285.67,31.61,80.41,49.49,165.53,38.62,252.33.71.7,1.49,1.01,2.32,1.01,6.67,0,16.73-20.04,18.53-23.99,26.19-57.39,8.57-106.85,5.6-164.25-.17-3.38-2.11-12.23,2.95-12.23.36,0,.74.04,1.17.14,6,.96,22.78,24.7,27.38,31.09,61.13,84.8,89.73,188.89,48.8,289.59-28.53,70.19-98.49,129.5-175.24,138.27-3.35.38-10.24,1.23-16.81,1.23-7.24,0-14.09-1.03-15.38-4.85-7.45-22.14,34.87-35.79,48.35-43.99,30.58-18.59,55.25-45.49,65.62-80.46-1.9-2.79-4.12-3.66-6.57-3.66-3.98,0-8.55,2.3-13.25,2.39-.99.02-1.97.03-2.94.03-31.56,0-55.95-10.06-66.24-42.67-8.82-27.95.18-51-1.39-78.33-1.81-31.64-14-66.52-33.38-91.48-2.54-3.27-12.58-16.91-17.9-16.91-.69,0-1.3.23-1.8.74-.88,31.03-14.44,58.22-34.48,81.12-19.47,22.25-44.53,35.45-62.28,59.94-35.65,49.2-33.44,104.33,5.05,151.25,16.44,20.04,50.74,35.87,48.85,62.03-1.31,3.93-9.43,4.93-17.43,4.93-6.14,0-12.21-.59-15.11-.89-55.07-5.75-115.09-45.06-147.34-89.13-85.42-116.72-43.93-272.11,47.38-371.55l5.31,2.68v46.5c74-32.15,106.98-112.85,106.39-190.11-.59-77.45-10.81-130.41,32.29-201.27,2.23-3.67,25.21-36.98,32.6-36.98M457.98,31.13c-8.7,0-33.23,37.09-33.46,37.46-36.3,59.7-34.93,106.66-33.2,166.12.33,11.41.68,23.21.77,35.68.52,68.6-26.66,153.93-104.39,188.57v-45.58l-.55-.28-5.31-2.68-.68-.34-.51.56c-47.31,51.52-79.35,115.38-90.21,179.8-12.07,71.55,2.72,138.29,42.77,193.01,16.13,22.04,39.36,43.07,65.39,59.19,27.58,17.08,56.16,27.57,82.65,30.34,5.69.59,10.8.89,15.21.89,11.11,0,17.12-1.83,18.38-5.61l.04-.12v-.13c1.34-18.28-14.42-31.57-29.66-44.42-6.98-5.88-14.19-11.97-19.4-18.32-38.38-46.78-40.21-101.46-5.01-150.03,9.85-13.59,22.23-23.9,34.2-33.86,9.53-7.93,19.38-16.14,28.02-26.01,22.11-25.27,33.79-52.62,34.71-81.3.23-.15.5-.22.82-.22,2.95,0,8.48,5.27,16.44,15.65.26.34.49.63.67.87,18.63,23.98,31.34,58.82,33.18,90.92.58,10.17-.32,19.88-1.2,29.27-1.51,16.27-2.94,31.64,2.63,49.3,9.33,29.59,30.68,43.37,67.19,43.37.98,0,1.97,0,2.96-.03,2.52-.05,4.94-.68,7.28-1.3,2.12-.56,4.13-1.09,5.95-1.09,2.31,0,4.02.88,5.47,2.84-9.61,31.94-32.1,59.4-65.04,79.43-2.73,1.66-6.66,3.55-11.21,5.73-17.43,8.37-43.77,21.01-37.57,39.44,1.25,3.72,6.59,5.53,16.33,5.53,6.21,0,12.73-.75,16.24-1.16l.69-.08c37.15-4.25,73.88-20.27,106.22-46.32,30.89-24.89,55.69-57.76,69.84-92.57,19.54-48.06,24.22-98.98,13.93-151.33-4.73-24.04-12.66-48.33-23.57-72.19-10.43-22.8-23.64-45.35-39.27-67.03l-.79-1.09c-9.83-13.68-21.79-29.48-27.22-30.39-.48-.1-.93-.15-1.36-.15-1.24,0-2.24.42-2.99,1.26-1.98,2.21-1.49,6.75-1.14,10.06.08.77.16,1.44.18,1.96.77,14.88,2.53,29.32,4.24,43.29,4.91,40.22,9.55,78.2-9.75,120.49-3.35,7.33-12.43,23.4-17.62,23.4-.46,0-.87-.14-1.27-.42,5.09-41.07,3.92-84.24-3.46-128.31-6.62-39.51-18.49-81.22-35.29-123.97-11.17-28.42-24.41-54.93-37.21-80.57-31.86-63.79-61.94-124.04-56.92-204.67.33-5.37,1.42-10.83,2.57-16.61,1.62-8.14,3.29-16.55,2.69-24.72l-.02-.34-.22-.25c-.55-.62-1.29-.95-2.15-.95h0Z"/>
  </g>
  <g>
    <path class="cls-1" d="M226.17,946.17c-11.92,0-22.15-.51-31.25-1.57-15.23-1.76-22.43-14.38-22.8-26.1-.4-12.38,6.77-27.08,23.46-30.12,8.35-1.52,18.48-2.25,30.96-2.25,16.47,0,34.05,1.26,51.05,2.49,11.42.82,22.22,1.6,31.6,1.9.85.03,1.93.04,3.21.04,4.01,0,9.91-.11,16.75-.25,9.06-.17,19.34-.37,28.58-.37,20.15,0,23.94,1,25.03,1.75,2.48,1.7,3.67,3.67,3.56,5.84-.37,7.04-14.6,14.74-24.99,20.36-4.01,2.17-7.48,4.04-9.15,5.36-3.39,2.65-6.4,5.96-9.31,9.16-3.79,4.17-7.72,8.49-12.6,11.52l-.14.08h-.16c-5.9-.38-12.2-.55-19.26-.55-13.64,0-28.09.69-42.06,1.35-14.08.67-28.63,1.36-42.48,1.36Z"/>
    <path d="M226.54,886.63c27.71,0,59.5,3.65,82.64,4.38.85.03,1.94.04,3.22.04,9.32,0,29.1-.62,45.33-.62,12.48,0,22.86.37,24.75,1.67,14.71,10.1-23.39,25.1-30.62,30.75-7.81,6.11-13.29,15.32-21.86,20.65-6.26-.39-12.71-.55-19.29-.55-27.36,0-56.93,2.71-84.54,2.71-10.78,0-21.26-.41-31.19-1.56-29.9-3.46-30-49.65.69-55.23,9.05-1.64,19.62-2.25,30.87-2.25M226.54,885.63v1-1c-12.52,0-22.68.74-31.06,2.26-16.98,3.08-24.27,18.04-23.87,30.62.38,11.93,7.72,24.78,23.25,26.58,9.12,1.06,19.37,1.57,31.31,1.57,13.85,0,28.42-.69,42.5-1.36,13.97-.66,28.41-1.35,42.04-1.35,7.05,0,13.33.18,19.23.54l.32.02.27-.17c4.94-3.07,8.89-7.41,12.71-11.61,2.9-3.19,5.89-6.48,9.25-9.1,1.65-1.29,5.09-3.15,9.09-5.31,11.08-5.99,24.87-13.45,25.25-20.77.13-2.36-1.14-4.48-3.77-6.28-1.25-.86-5.26-1.84-25.32-1.84-9.24,0-19.52.2-28.59.37-6.83.13-12.73.25-16.74.25-1.33,0-2.38-.01-3.19-.04-9.38-.3-20.16-1.07-31.58-1.89-17.01-1.22-34.6-2.49-51.08-2.49h0Z"/>
  </g>
  <g>
    <path class="cls-1" d="M568.07,943.2l-.15-.22c-5.84-8.85-11.97-15.68-18.73-20.89-.92-.71-3.42-2.05-6.58-3.75-10.36-5.56-27.69-14.87-27.07-21.88.21-2.38,2.41-4.27,6.53-5.62,3.28-1.07,19.94-1.66,30.97-2.05,2.8-.1,5.17-.18,6.74-.25,6.51-.3,13.26-.45,20.64-.45,17.04,0,34.6.81,51.58,1.59,17.09.79,34.76,1.6,52.01,1.6,9.5,0,18.1-.24,26.3-.73h.1s.09.02.09.02c12.58,4.21,20.39,14.53,20.38,26.92,0,12.4-7.82,22.71-20.39,26.9l-.08.03-142.35-1.21Z"/>
    <path d="M580.43,888.59c34.13,0,69.14,3.19,103.59,3.19,8.82,0,17.6-.21,26.33-.73,26.77,8.97,26.68,43.98,0,52.87l-142-1.21c-5.21-7.9-11.31-15.21-18.84-21.01-4.89-3.77-49.58-23.08-27.26-30.38,4.06-1.33,30.05-1.93,37.57-2.28,6.83-.31,13.7-.44,20.61-.44M580.43,887.59v1-1c-7.39,0-14.15.15-20.67.45-1.56.07-3.95.16-6.72.25-14.05.49-28.03,1.06-31.11,2.07-4.33,1.42-6.64,3.45-6.87,6.05-.6,6.77,13.17,14.77,27.33,22.37,3.14,1.69,5.62,3.02,6.51,3.7,6.71,5.18,12.8,11.97,18.62,20.77l.29.44h.53s142,1.21,142,1.21h.17s.16-.05.16-.05c12.58-4.2,20.72-14.94,20.73-27.37,0-12.62-7.93-23.11-20.73-27.4l-.18-.06h-.19c-8.19.5-16.78.74-26.27.74-17.24,0-34.9-.81-51.98-1.6-16.99-.78-34.55-1.59-51.6-1.59h0Z"/>
  </g>
  <g>
    <path class="cls-1" d="M354.15,963.14l-3.12-5.96.2-.25c21.56-27.37,59.32-43.71,101.01-43.71s78.5,16.39,99.25,43.85l.19.25-2.97,5.82h-194.56Z"/>
    <path d="M452.24,913.72c38.45,0,76.72,14.37,98.86,43.66l-2.69,5.27h-193.95l-2.83-5.41c22.71-28.83,61.75-43.52,100.62-43.52M452.25,912.72h0c-41.84,0-79.75,16.41-101.4,43.9l-.4.51.3.57,2.83,5.41.28.54h195.17l.28-.55,2.69-5.27.28-.56-.38-.5c-10.79-14.27-25.49-25.41-43.72-33.13-16.89-7.15-36.23-10.93-55.93-10.93h0Z"/>
  </g>
</svg>