<?xml version="1.0" encoding="UTF-8"?>
<svg id="Layer_1" data-name="Layer 1" xmlns="http://www.w3.org/2000/svg" viewBox="0 0 874.83 980.33">
  <defs>
    <style>
      .cls-1 {
        fill: #fff;
        stroke: #000;
        stroke-miterlimit: 10;
      }
    </style>
  </defs>
  <path class="cls-1" d="M567.1,670.05c-25.66,0-45.02-10.42-59.19-31.87-10.83-16.4-22.44-33.48-34.51-50.76-8.77-12.56-20.17-19.29-33.87-20-.91-.05-1.83-.07-2.72-.07-13.75,0-24.66,5.52-32.42,16.39-15.04,21.08-26.36,37.42-36.69,52.97-14.88,22.38-34.44,33.26-59.81,33.26-1.57,0-3.19-.04-4.8-.13-14.02-.73-28.27-1.38-42.05-2.01-29.99-1.37-61-2.78-91.38-5.13-25.74-1.99-48.08-9.39-66.4-22.01-22.94-15.8-35.41-37.09-38.11-65.08-.44-4.52-.82-9.13-1.22-14.01-.2-2.43-.41-4.96-.64-7.63l-.39-4.57s-22.26.02-25.67.02c-4.21,0-8.38,0-12.56-.03-15.77-.08-23.43-7.79-23.44-23.6v-12.26c-.02-15.58-.03-31.69.06-47.52.09-15.28,7.32-22.44,22.73-22.53,4.3-.03,8.6-.03,12.93-.03,3.48,0,6.98,0,10.52.01,3.62,0,7.29.01,11.02.01h4.4l.56-4.37c.32-2.53.61-4.99.9-7.41.59-5.06,1.16-9.84,1.93-14.57,5.35-32.53,23.57-54.4,55.72-66.88,20.33-7.89,42.91-11.99,73.21-13.31,44.22-1.92,91.25-3.8,137.35-3.91,22.89-.05,43.89-.08,64.2-.08,87.98,0,161.28.5,230.67,1.58,29.87.46,62.37,3.36,99.35,8.86,35.76,5.32,60.38,21.84,73.18,49.11,3.72,7.93,5.5,16.82,7.4,26.24.79,3.94,1.61,8.02,2.58,12,.31,1.27.39,2.78.49,4.69.06,1.09.12,2.26.23,3.51l.4,4.56h26.54c4.43-.01,8.83,0,13.23,0,14.78.05,22.63,7.92,22.71,22.75.11,22.07.15,41.87.13,60.54-.02,14.37-8.37,22.62-22.92,22.64h-6.37c-8.47,0-16.94.02-25.41.05-1.13,0-2.06.25-2.81.46-.23.06-.47.13-.74.19l-3.45.75-.45,3.5c-.43,3.39-.81,6.82-1.18,10.15-.79,7.14-1.6,14.51-2.98,21.56-6.15,31.44-25.25,53.51-56.77,65.59-29.3,11.23-60.25,13.79-92.03,15.59-19.11,1.09-38.62,1.53-57.48,1.95-10.1.23-20.54.46-30.82.79-1.05.03-2.08.05-3.11.05ZM427.93,355.27c-18.36.46-37.17.88-57.08,1.33-55.62,1.25-113.12,2.54-171.72,4.83-18.6.73-38.96,4.44-64.07,11.69-25.45,7.35-41.53,27.02-45.28,55.38-1.47,11.1-3.03,24.28-3.52,37.77-1.19,32.99-2.67,74.04,3.81,113.27,3.8,22.99,16.44,39.58,36.55,47.97,10.67,4.45,21.7,9.06,33.26,10.02,28.8,2.39,58.11,4.17,86.45,5.88,14.39.87,29.27,1.77,43.9,2.74,1.58.1,3.16.16,4.69.16,20.38,0,36.58-9.41,48.16-27.96,12.22-19.58,24.86-39.83,37.98-59.24,13.47-19.93,31.96-30.04,54.96-30.04,1.81,0,3.68.06,5.55.19,22.03,1.47,39.74,13.26,54.15,36.03,11.96,18.91,24.91,39.18,38.48,59.28,9.5,14.07,23.5,21.5,40.48,21.5.72,0,1.44-.01,2.17-.04,9.52-.34,19.22-.58,28.61-.81,22.09-.54,44.93-1.11,67.36-3.01,21.85-1.85,44.12-5.89,66.19-12.01,24.62-6.82,40.21-26.21,43.9-54.6,5.16-39.67,5.67-82.56,1.63-135-3.11-40.27-20.61-62.1-56.77-70.78-23.69-5.69-47.2-8.95-69.87-9.71-52.21-1.75-104.77-2.65-160.42-3.61-22.35-.39-45.46-.78-69.33-1.25h-.11s-.11,0-.11,0ZM21.63,452.53c-2.93.77-6.84,2.82-9.07,6.26-1.69,2.6-1.55,5.55-1.45,7.91.02.49.05.97.04,1.43-.06,13.3-.09,26.61-.12,39.91v6.95c-.02,1.28-.07,2.58-.13,3.95-.15,3.69-.31,7.51.51,11.39.74,3.46,3.53,5.52,5.77,7.18.7.52,1.37,1.01,1.83,1.44l4.4,4.09,3.22-5.07c.28-.44.71-.98,1.17-1.55,1.49-1.86,3.35-4.17,3.46-7.31.3-8.11.26-16.31.22-24.24,0-1.32-.01-2.64-.02-3.96l.09-4.47c0-2.82.01-5.64.02-8.46.03-8.41.06-17.1-.19-25.69-.1-3.32-3.81-9.94-8.42-9.94h-.65l-.69.17ZM843.06,504.53c-.02,8.4-.05,17.08.15,25.65.05,2.33,2.54,10,7.66,10h.54l.56-.12c2.97-.65,7.04-2.07,9.57-5.08,2.22-2.65,2.17-6.18,2.14-8.76,0-.33,0-.65,0-.96.07-18.97.06-37.57.05-58.18,0-.34.02-.71.05-1.08.12-1.98.29-4.97-1.7-7.31-1.69-1.98-3.75-3.33-5.57-4.52-.62-.4-1.23-.8-1.82-1.23l-4.21-3.05-2.88,4.33c-.25.38-.67.87-1.1,1.39-1.41,1.68-3.34,3.98-3.45,7.07-.28,8.33-.24,16.77-.2,24.93.01,2.82.02,5.64.02,8.46v5h.22c0,1.15,0,2.3,0,3.45Z"/>
  <path class="cls-1" d="M143.37,493.57c-8.7-.2-12.4-7.71-8.71-13.5,14.76-23.15,29.89-46.07,49.63-65.39,9.51-9.31,19.6-18.03,29.66-26.76,4.16-3.61,9.36-6.53,13.73-.68,4.25,5.69.41,9.49-4.29,13.02-30.44,22.91-53.18,52.48-72.98,84.62-2.2,3.57-5.3,6.57-7.03,8.68Z"/>
  <path class="cls-1" d="M730.08,475.47c-2.16,1.95-4.22,5.31-6.66,5.62-2.83.36-7.14-1.11-8.8-3.31-4.22-5.57-7.17-12.07-10.89-18.04-14.45-23.19-31.69-44.15-51.43-63-4.32-4.12-4.83-8.36-.91-12.47,3.89-4.08,8.07-2.9,11.86.84,25.22,24.93,46.27,53.06,64.17,83.61.99,1.69,1.47,3.67,2.67,6.77Z"/>
</svg>