<?xml version="1.0" encoding="UTF-8"?>
<svg id="Layer_1" data-name="Layer 1" xmlns="http://www.w3.org/2000/svg" viewBox="0 0 873.83 979.33">
  <path d="M457.76,979.33c-19.02,0-38.05-.86-56.54-2.55-25.11-2.29-50.43-6.39-74.92-10.36-7.14-1.16-14.28-2.31-21.43-3.43-5.88-.92-9.65-2.87-11.85-6.13-2.38-3.52-2.72-8.17-1.12-15.09,12.11-52.24,20.14-99.84,24.57-145.5,3.07-31.63-6.97-57.23-30.69-78.28-16.24-14.41-31.24-29.98-45.75-45.04-30.47-31.63-48.91-69.52-62.92-102.41-21.65-50.82-50.84-100.8-86.77-148.56-2.41-3.21-4.6-6.45-6.52-9.65-8.26-13.82-9.15-26.08-2.73-37.49,6.95-12.34,18.51-18.69,34.38-18.89.35,0,.7,0,1.05,0,24.74,0,45.59,11.3,61,21.14,34.6,22.1,58.85,53.29,76.1,78,4.24,6.07,10.62,10.94,17.35,15.82.9.65,1.43.73,1.61.73.58,0,1.47-1.26,1.96-3.6,9.13-42.92,12.47-85.16,9.95-125.55l-.98-15.56c-3.9-61.72-7.93-125.54-6.01-188.58v-.11c.63-20.49,1.27-41.68,11.6-61.09,8.81-16.55,25.33-26.84,43.1-26.84,11.52,0,22.43,4.48,30.71,12.6,12.96,12.72,15.68,29.35,16.6,42.42,2.42,34.41,5.16,69.37,7.81,103.19.12,1.57.25,3.14.37,4.71l.91-17.78c2.13-41.56,4.33-84.53,7.42-126.75,1.75-23.84,9.75-41.73,24.46-54.68,10.57-9.3,22.04-14.02,34.12-14.02,5.81,0,11.79,1.11,17.79,3.3,19.48,7.12,31.21,22.88,33.05,44.37.88,10.37.4,20.94-.07,31.15-.19,4.22-.39,8.58-.49,12.84-.45,19.51-.91,39.03-1.37,58.54-.24,10.11-.48,20.22-.71,30.32.51-4.36,1.02-8.72,1.53-13.08,2.61-22.37,5.31-45.5,8.45-68.2,1-7.19,3.43-14.92,7.05-22.36,9.04-18.58,23.75-28.4,42.54-28.4.66,0,1.32.01,1.99.04,20.25.72,35.64,11.93,43.35,31.58,3.9,9.93,5.75,21.3,5.09,31.2-2.24,33.71-4.99,67.94-7.65,101.04-1.59,19.8-3.23,40.28-4.75,60.43-.73,9.72-1.15,18.97-1.27,27.9,1.92-8.77,3.84-17.55,5.74-26.33,1.32-6.11,2.58-12.36,3.79-18.4,2.81-14.04,5.72-28.56,9.77-42.56,2.67-9.22,7.74-22.3,16.75-32.2,7.54-8.29,17.54-12.85,28.17-12.85,14.3,0,27.81,8.37,35.25,21.84,9.46,17.11,8.26,35.73,5.55,53.31-3.13,20.31-6.49,40.93-9.73,60.87-5.41,33.21-11,67.55-15.68,101.43-2.62,18.94-3.33,38.55-4.02,57.51-.24,6.47-.48,13.16-.8,19.74-2.29,47.69-5.97,103-20.73,155.97-9.4,33.76-23.33,64.42-41.42,91.13-12.15,17.95-17.35,37.1-15.89,58.54,3.43,50.37,11.92,101.13,25.23,150.87,2.05,7.66,1.92,12.56-.45,16.38-2.38,3.84-6.77,6.16-14.67,7.75-52.14,10.53-100.63,15.66-148.23,15.66ZM314.38,943.62c2.51.67,4.88,1.3,7.2,1.63,7.26,1.05,14.63,2.18,21.76,3.27,17.77,2.73,36.14,5.55,54.26,7.27,19.97,1.89,40.34,2.85,60.54,2.85,44.79,0,90.83-4.72,136.86-14.04,3.17-.64,4.22-1.38,4.54-1.88.69-1.1-.1-4.23-.36-5.26-9.89-39.23-17.34-81.28-22.77-128.54-4.32-37.66,2.43-68.15,21.25-95.97,10.19-15.05,18.93-32.96,28.35-58.05,18.63-49.62,23.53-101.4,26.04-149.97.5-9.57.76-19.34,1.01-28.79.52-19.31,1.06-39.27,3.59-58.72,4.84-37.18,10.91-74.81,16.77-111.2,2.92-18.08,5.93-36.78,8.76-55.19l.39-2.53c2.4-15.5,4.67-30.14-.72-44.77-3.12-8.45-7.95-12.97-15.21-14.2-1.33-.23-2.64-.34-3.89-.34-6.74,0-12.19,3.26-15.75,9.43-4.87,8.45-8.24,16.64-10.02,24.35-4.85,21.08-9.48,42.6-13.95,63.41-3.38,15.74-6.88,32.02-10.45,48-1.69,7.56-4.32,15.73-8.29,25.72-1.34,3.37-5.22,11.2-12.42,11.2-1.38,0-2.78-.31-4.15-.92-5.03-2.23-9.1-9.57-10.12-15.37-1.45-8.18-1.8-17.38-1.06-27.35,4-53.73,8.26-108.34,12.37-161.15,1.37-17.58,2.74-35.16,4.1-52.75.96-12.38-1.29-22.69-6.89-31.53-5.29-8.36-13.64-13.16-22.9-13.16-8.03,0-15.49,3.63-21.02,10.21-7.5,8.93-9.58,20.13-10.63,29.91-2.54,23.7-5.04,47.8-7.46,71.12-2.95,28.41-5.99,57.79-9.14,86.67-1.79,16.4-4.31,33.14-7.5,49.77-.66,3.46-3.47,5.92-6.19,8.31-1.06.93-2.06,1.81-2.86,2.68l-2.31,2.53-2.2-2.63c-.82-.98-1.81-1.95-2.86-2.97-2.62-2.57-5.34-5.23-6.21-8.8-2.11-8.63-3.15-17.75-3.02-26.38.58-38.97,1.3-78.58,1.99-116.89.63-35.18,1.29-71.55,1.84-107.33.11-7.21-.08-15.58-2.36-23.02-3.99-13.03-14.89-21.45-27.76-21.45-7.5,0-14.68,2.83-20.78,8.17-9.16,8.03-14.75,18.78-16.63,31.95l-.53,3.72c-2.64,18.44-5.37,37.51-5.91,56.25-1.13,38.91-1.78,78.5-2.4,116.79-.36,21.94-.73,44.63-1.19,66.94-.16,7.65-1.12,15.38-2.87,22.98-.88,3.81-4.75,9.49-9.06,10.11-.27.04-.55.06-.84.06-3.8,0-9.22-3.85-10.74-7.62-2.93-7.29-6.5-16.91-8.13-26.76-9.64-58.31-15.21-120.13-17.51-194.56-.26-8.38-1.55-15.44-3.85-20.97-4.41-10.63-13.1-16.97-23.25-16.97-8.09,0-16.03,4.23-21.77,11.61-6.22,7.99-9.57,17.78-10.52,30.81-4.57,62.06-1.46,122.78,2.58,179.15,2.98,41.6,5.64,89.94-.62,137.17-1.15,8.7-2.35,17.39-3.45,25.37-.37,2.69-.73,5.3-1.07,7.8.99.47,2,.91,2.99,1.34,3.75,1.62,7.29,3.16,8.68,6.35,3.78,8.7-4.33,13.25-9.18,15.96-7.72,4.33-15.54,6.52-23.23,6.52-13.36,0-25.75-6.86-34.89-19.31-2.62-3.57-5.24-7.23-7.78-10.76-7.34-10.23-14.93-20.81-23.24-30.41-23.11-26.7-45.3-42.86-69.84-50.84-7.97-2.59-16.56-3.97-24.84-3.97-1.9,0-3.79.07-5.61.22-5.17.42-9.12,2.67-11.11,6.34-2.24,4.12-1.85,9.57,1.06,14.94,2.24,4.14,5.16,8.13,7.98,11.98l.81,1.11c35.96,49.24,63.47,96.14,84.11,143.39,1.47,3.36,2.92,6.73,4.37,10.11,11.02,25.58,22.41,52.04,41.18,73.3,20.35,23.04,41.27,44.68,62.18,64.33,28.16,26.45,40.01,56.06,36.23,90.54-3.33,30.4-6.85,57.21-10.75,81.95-2.53,16.01-5.7,31.6-9.06,48.11-1.28,6.29-2.6,12.76-3.88,19.28.39.1.78.21,1.17.31Z"/>
  <path d="M390.58,250.63c0-12.37-.54-24.76.1-37.1,2.49-48.22,4.81-96.47,8.34-144.62,1.45-19.84,7.46-38.57,23.45-52.65,14.54-12.8,31.04-16.68,48.89-10.15,18.98,6.94,29.41,22.08,31.09,41.81,1.23,14.44-.23,29.11-.57,43.67-.99,42.9-2.02,85.81-3,128.71-.04,1.57.3,3.16,2.09,4.85,1.57-14.53,3.02-29.07,4.73-43.57,3.21-27.32,6.28-54.67,10.05-81.92,1.02-7.34,3.52-14.77,6.78-21.46,8.35-17.16,22.02-27.37,41.72-26.68,19.92.7,33.65,11.8,40.67,29.68,3.63,9.24,5.55,20.04,4.89,29.91-3.58,53.85-8.34,107.62-12.4,161.45-1.33,17.66-1.76,35.39-.73,53.37,3.71-16.98,7.44-33.96,11.12-50.94,4.4-20.29,7.76-40.87,13.51-60.77,3.19-11.04,8.47-22.65,16.09-31.02,17.4-19.12,46.02-14.29,58.58,8.42,9.04,16.35,7.9,33.98,5.21,51.4-8.34,54.14-17.93,108.09-25.42,162.34-3.53,25.57-3.6,51.65-4.84,77.51-2.52,52.36-6.48,104.53-20.62,155.31-8.96,32.17-22.24,62.53-41.01,90.25-12.45,18.39-17.91,38.26-16.4,60.42,3.49,51.32,12.03,101.77,25.33,151.44,3.48,12.99.44,17.74-12.82,20.42-67.38,13.61-135.38,19.32-203.91,13.06-32.2-2.94-64.16-8.77-96.15-13.77-10.49-1.64-13.03-6.73-10.51-17.58,11.15-48.13,19.86-96.64,24.63-145.89,3.16-32.65-7.13-59.03-31.69-80.82-15.93-14.14-30.79-29.52-45.58-44.88-28.17-29.24-46.58-64.57-62.32-101.5-22.75-53.39-52.27-102.84-87.13-149.19-2.27-3.01-4.4-6.15-6.34-9.39-6.59-11.03-9.4-22.56-2.69-34.48,6.89-12.24,18.25-17.2,31.8-17.36,22.54-.28,41.98,8.9,60.4,20.66,31.09,19.86,54.37,47.28,75.26,77.19,4.57,6.55,11.46,11.75,18.05,16.53,3.97,2.88,7.1.81,8.27-4.68,8.87-41.7,12.66-83.89,10.01-126.36-4.25-67.91-9.06-135.77-6.98-203.87.63-20.51,1.23-41.06,11.25-59.88,14.32-26.9,48.42-33.75,69.06-13.5,11.23,11.02,14.63,25.18,15.71,40.49,3.31,47.1,7.14,94.15,10.78,141.23.1,1.3.32,2.59.48,3.88.93,0,1.87,0,2.8,0ZM309.72,945.52c4.13.99,7.74,2.17,11.43,2.7,25.37,3.66,50.67,8.14,76.17,10.55,66.6,6.31,132.7,2.04,198.28-11.24,7.23-1.46,8.2-4.05,6.49-10.82-10.63-42.16-17.73-84.92-22.7-128.15-3.91-34.03,1.03-64.79,20.76-93.94,12.1-17.88,21.04-38.35,28.68-58.68,18.21-48.49,23.57-99.52,26.22-150.87,1.5-29.11.83-58.48,4.58-87.28,7.24-55.61,17.01-110.88,25.52-166.32,2.49-16.23,5.49-32.59-.48-48.79-3.08-8.35-8.2-14.53-17.52-16.12-10-1.7-18,2.33-22.74,10.55-4.5,7.81-8.33,16.43-10.34,25.18-8.53,37.06-16.11,74.33-24.41,111.44-1.92,8.61-4.89,17.06-8.15,25.27-2.12,5.35-6.54,11.32-12.57,8.65-4.05-1.8-7.52-8.27-8.39-13.15-1.53-8.67-1.68-17.78-1.02-26.6,5.31-71.31,10.95-142.59,16.48-213.89.92-11.86-.86-23.12-7.34-33.37-11.39-17.99-35.08-19.55-48.75-3.27-7.67,9.14-10.1,20.21-11.31,31.52-5.64,52.58-10.87,105.21-16.6,157.78-1.81,16.59-4.32,33.14-7.46,49.53-.69,3.57-5.44,6.37-8.31,9.53-2.93-3.49-7.48-6.59-8.45-10.55-2.03-8.3-3.07-17.07-2.94-25.63,1.12-74.74,2.67-149.47,3.83-224.22.12-7.99-.18-16.4-2.49-23.94-7.33-23.91-34.58-31.15-53.39-14.66-10.2,8.94-15.76,20.75-17.62,33.79-2.85,20.01-5.89,40.15-6.47,60.3-1.77,61.23-2.34,122.5-3.59,183.75-.15,7.49-1.12,15.08-2.8,22.37-.72,3.11-3.97,7.45-6.56,7.82-2.56.37-7.26-2.95-8.37-5.71-3.39-8.43-6.48-17.2-7.95-26.13-10.63-64.28-15.46-129.09-17.47-194.17-.23-7.41-1.27-15.27-4.08-22.03-9.3-22.42-35.19-25.29-50.15-6.06-7.42,9.53-10.29,20.7-11.15,32.43-4.41,59.93-1.7,119.8,2.58,179.59,3.27,45.59,5.42,91.07-.61,136.57-1.65,12.46-3.39,24.91-4.81,35.26,5.06,2.81,10.82,4.05,12.18,7.19,2.7,6.21-3.09,9.46-7.89,12.15-20.21,11.33-40.51,6.76-54.24-11.94-10.22-13.92-19.89-28.33-31.17-41.36-19.61-22.66-42.06-42.26-71.18-51.73-9.96-3.24-21.21-4.72-31.62-3.88-13.82,1.11-19.08,13.45-12.44,25.7,2.56,4.72,5.83,9.08,9.01,13.43,32.72,44.8,61.51,91.84,83.78,142.82,12.83,29.37,24.5,59.79,46.05,84.19,19.79,22.41,40.59,44.06,62.37,64.53,25.78,24.21,39.18,52.61,35.3,88.02-3,27.34-6.45,54.65-10.74,81.81-3.65,23.11-8.77,45.98-13.46,70.06Z"/>
  <path d="M430.48,928.84c-24.64-2.2-50.11-4.48-76.08-6.89-2.65-.25-7.08-.66-9.5-3.8-1.41-1.83-1.89-4.22-1.41-7.1.54-3.27,2.41-7.17,8.26-7.17,1.36,0,2.69.2,3.98.38l.71.1c33.31,4.69,67.24,7.06,100.85,7.06,28.35,0,57.21-1.69,85.78-5.03,2.41-.28,4.87-.64,7.25-.99,1.85-.27,3.7-.54,5.55-.78l.17-.02c1.43-.19,3.06-.4,4.65-.4,7.12,0,8.76,4.58,9.1,7.31.32,2.58-.21,4.78-1.59,6.54-2.45,3.12-6.71,3.86-10.52,4.3-2.6.3-5.26.67-7.82,1.03-4.57.63-9.29,1.29-14.01,1.63-18.95,1.39-38.14,2.68-58.45,4.04-8.06.54-16.36,1.1-25,1.68l-.24.02-21.66-1.94Z"/>
  <path d="M452.17,927.77c-29.79-2.67-63.65-5.66-97.5-8.81-4.3-.4-9.27-1.14-8.23-7.42.96-5.82,5.53-4.77,9.58-4.2,62.38,8.78,124.84,9.35,187.39,2.05,4.29-.5,8.55-1.22,12.84-1.77,4.37-.57,9.85-1.35,10.56,4.28.73,5.87-4.68,6.93-9.49,7.49-7.24.85-14.44,2.12-21.7,2.65-26.38,1.94-52.78,3.64-83.44,5.72Z"/>
</svg>