<?xml version="1.0" encoding="UTF-8"?>
<svg id="Layer_1" data-name="Layer 1" xmlns="http://www.w3.org/2000/svg" viewBox="0 0 874.83 983.33">
  <defs>
    <style>
      .cls-1 {
        fill: #fff;
      }
    </style>
  </defs>
  <g>
    <path class="cls-1" d="M458.26,982.83c-19.07,0-38.14-.86-56.68-2.55-25.18-2.3-50.52-6.41-75.02-10.37-7.19-1.17-14.31-2.32-21.42-3.43-6.32-.99-10.41-3.14-12.86-6.77-3.41-5.05-2.4-11.7-1.34-16.27,12.09-52.18,20.12-99.71,24.54-145.3,3.02-31.12-6.86-56.31-30.2-77.02-16.28-14.45-31.3-30.04-45.83-45.12-30.64-31.8-49.16-69.85-63.22-102.87-21.6-50.7-50.73-100.58-86.58-148.25-2.44-3.24-4.66-6.54-6.6-9.78-8.56-14.32-9.46-27.08-2.75-39,7.23-12.84,19.23-19.45,35.67-19.66.36,0,.71,0,1.07,0,25.12,0,46.23,11.42,61.81,21.38,34.82,22.25,59.19,53.58,76.53,78.4,4.1,5.87,10.38,10.67,17,15.46.17.13.32.22.44.28.21-.35.53-1.04.79-2.25,9.1-42.79,12.43-84.89,9.92-125.14l-.98-15.56c-3.9-61.75-7.93-125.61-6.01-188.72v-.11c.63-20.66,1.28-42.03,11.78-61.74,9.07-17.04,26.1-27.63,44.42-27.63,11.92,0,23.2,4.63,31.76,13.03,13.32,13.07,16.1,30.05,17.04,43.39,2,28.46,4.23,57.34,6.37,84.81,2.04-39.9,4.18-81,7.15-121.44,1.78-24.25,9.94-42.47,24.96-55.69,10.85-9.55,22.66-14.39,35.11-14.39,5.99,0,12.14,1.14,18.3,3.39,20.06,7.33,32.14,23.54,34.03,45.65.89,10.47.41,21.09-.06,31.35-.19,4.21-.39,8.56-.49,12.81-.44,18.89-.88,37.78-1.32,56.66,1.89-16.01,3.94-32.7,6.24-49.32,1.02-7.35,3.5-15.23,7.19-22.81,9.31-19.13,24.48-29.24,43.89-29.24.67,0,1.35.01,2.04.04,20.88.74,36.75,12.29,44.7,32.53,4.03,10.27,5.88,21.58,5.19,31.85-2.24,33.69-4.99,67.9-7.65,100.98l-.03.38c-1.58,19.71-3.22,40.09-4.73,60.13-.29,3.87-.54,7.7-.73,11.44.75-3.43,1.5-6.87,2.24-10.3,1.33-6.14,2.58-12.36,3.78-18.38,2.82-14.07,5.73-28.61,9.8-42.68,2.71-9.38,7.88-22.68,17.08-32.8,7.83-8.6,18.23-13.34,29.28-13.34,14.84,0,28.85,8.66,36.57,22.61,9.68,17.5,8.47,36.42,5.72,54.26-3.11,20.23-6.46,40.76-9.69,60.61l-.04.27c-5.42,33.24-11,67.56-15.68,101.39-2.61,18.86-3.32,38.43-4.01,57.35-.22,6.15-.48,13.11-.8,19.76-2.29,47.76-5.98,103.17-20.78,156.3-9.45,33.92-23.45,64.73-41.62,91.57-11.96,17.67-17.07,36.51-15.64,57.59,3.42,50.28,11.9,100.94,25.19,150.58,2.17,8.1,1.98,13.35-.62,17.56-2.62,4.22-7.3,6.75-15.65,8.43-52.24,10.55-100.83,15.69-148.53,15.69ZM315.46,944.22c2.39.64,4.65,1.23,6.84,1.55,7.19,1.04,14.48,2.15,21.53,3.24l.24.04c17.74,2.72,36.08,5.54,54.18,7.25,19.92,1.89,40.24,2.85,60.4,2.85,44.69,0,90.63-4.71,136.56-14.01,3.01-.61,3.58-1.23,3.58-1.24h0s.27-.75-.56-4.07c-9.91-39.29-17.37-81.4-22.8-128.73-4.37-38.03,2.47-68.85,21.5-96.98,10.12-14.95,18.81-32.76,28.19-57.74,18.56-49.43,23.44-101.07,25.94-149.52.5-9.59.76-19.33,1.01-28.76.52-19.35,1.06-39.35,3.6-58.88,4.84-37.19,10.91-74.82,16.77-111.21,2.91-18.07,5.92-36.72,8.76-55.22l.39-2.53c2.37-15.31,4.61-29.76-.65-44.02-2.95-8.01-7.29-12.09-14.05-13.24-1.25-.21-2.47-.32-3.64-.32-6.18,0-11.17,3-14.45,8.68-4.8,8.32-8.12,16.37-9.86,23.94-4.84,21.02-9.45,42.47-13.91,63.22l-.04.17c-3.39,15.77-6.88,32.04-10.46,48.02-1.71,7.63-4.36,15.88-8.36,25.95-3.06,7.72-8.1,12.15-13.82,12.15-1.59,0-3.19-.35-4.76-1.05-5.7-2.53-9.92-10.38-11-16.48-1.47-8.3-1.83-17.63-1.08-27.72,4.04-54.18,8.27-108.56,12.37-161.15l.02-.29c1.36-17.48,2.72-34.97,4.08-52.45.93-12.04-1.24-22.06-6.66-30.61-5.01-7.92-12.9-12.46-21.63-12.46-7.58,0-14.63,3.44-19.87,9.68-7.24,8.62-9.26,19.55-10.28,29.1-2.54,23.62-5.03,47.65-7.44,70.89l-.05.49c-2.94,28.33-5.97,57.61-9.11,86.41-1.79,16.43-4.32,33.22-7.51,49.89-.76,3.97-3.9,6.72-6.67,9.15-1.03.9-2,1.75-2.74,2.56l-3.47,3.8-3.31-3.94c-.78-.93-1.74-1.87-2.76-2.87-2.65-2.59-5.64-5.53-6.62-9.51-2.14-8.75-3.2-18-3.07-26.76.58-38.67,1.29-78,1.97-116.02l.02-.87c.63-35.16,1.29-71.52,1.84-107.33.11-7.09-.08-15.31-2.29-22.56-3.8-12.39-14.13-20.39-26.33-20.39-7.12,0-13.97,2.7-19.79,7.8-8.88,7.79-14.31,18.23-16.13,31.04l-.53,3.72c-2.63,18.4-5.35,37.43-5.9,56.08-1.13,38.88-1.77,78.43-2.4,116.68-.36,21.98-.73,44.62-1.19,67.03-.16,7.75-1.14,15.59-2.91,23.28-.95,4.13-5.17,10.52-10.3,11.26-.34.05-.7.07-1.05.07-4.38,0-10.39-4.24-12.13-8.56-2.96-7.36-6.57-17.08-8.22-27.07-9.65-58.37-15.22-120.26-17.53-194.76-.25-8.2-1.51-15.08-3.74-20.45-4.17-10.05-12.34-16.05-21.86-16.05-7.63,0-15.13,4.02-20.59,11.03-6.03,7.75-9.28,17.28-10.21,30-4.56,61.96-1.45,122.62,2.58,178.94,2.99,41.68,5.65,90.11-.63,137.48-1.14,8.62-2.33,17.23-3.42,25.15l-.95,6.93c.65.29,1.3.58,1.94.85,4.04,1.75,7.85,3.4,9.47,7.13,4.32,9.94-4.88,15.1-9.82,17.87-7.95,4.46-16.01,6.71-23.97,6.71-13.85,0-26.67-7.07-36.1-19.92-2.6-3.54-5.2-7.16-7.71-10.67l-.08-.11c-7.32-10.21-14.9-20.76-23.15-30.3-22.93-26.49-44.91-42.5-69.17-50.4-7.82-2.55-16.25-3.89-24.38-3.89-1.86,0-3.71.07-5.49.22-4.65.37-8.17,2.35-9.91,5.56-1.99,3.67-1.6,8.59,1.06,13.51,2.19,4.05,5.08,7.99,7.87,11.8l.82,1.12c36.02,49.33,63.59,96.33,84.27,143.67,1.47,3.36,2.92,6.73,4.38,10.11,10.97,25.48,22.31,51.82,40.92,72.9,20.32,23.01,41.21,44.62,62.08,64.23,28.53,26.79,40.53,56.82,36.69,91.79-3.34,30.43-6.86,57.26-10.76,82.02-2.53,16.04-5.7,31.63-9.06,48.15l-.04.2c-1.18,5.79-2.39,11.73-3.57,17.72Z"/>
    <path d="M455.1,1c5.93,0,12.03,1.13,18.13,3.36,19.87,7.26,31.83,23.32,33.7,45.22.89,10.44.41,21.04-.06,31.28-.19,4.21-.39,8.57-.49,12.82-.45,19.52-.91,39.03-1.37,58.54-.07,2.93-.14,5.87-.21,8.8,2.31-19.77,4.73-40.01,7.48-59.92,1.01-7.29,3.48-15.13,7.14-22.66,9.22-18.95,24.24-28.96,43.44-28.96.67,0,1.34.01,2.02.04,20.67.73,36.38,12.17,44.25,32.21,4.01,10.21,5.84,21.44,5.16,31.64-2.24,33.72-4.99,67.95-7.65,101.06-1.59,19.8-3.23,40.28-4.75,60.42-.45,5.94-.78,11.71-.99,17.33,1.17-5.35,2.33-10.7,3.49-16.05,1.32-6.1,2.57-12.35,3.78-18.39,2.82-14.06,5.73-28.6,9.79-42.64,2.7-9.33,7.83-22.55,16.97-32.6,7.73-8.5,18-13.18,28.91-13.18,14.66,0,28.5,8.56,36.13,22.35,9.6,17.37,8.4,36.19,5.66,53.95-3.13,20.32-6.49,40.94-9.74,60.88-5.41,33.21-11,67.54-15.68,101.4-2.61,18.89-3.32,38.47-4.02,57.41-.24,6.47-.48,13.17-.8,19.75-2.29,47.74-5.98,103.12-20.76,156.19-9.43,33.87-23.41,64.63-41.55,91.42-12.02,17.76-17.17,36.7-15.72,57.91,3.42,50.31,11.9,101,25.2,150.68,2.13,7.96,1.96,13.09-.56,17.17-2.54,4.1-7.12,6.55-15.33,8.21-52.21,10.55-100.76,15.68-148.43,15.68-19.05,0-38.11-.86-56.64-2.55-25.15-2.3-50.48-6.4-74.98-10.37-7.14-1.16-14.28-2.31-21.42-3.43-6.17-.96-10.15-3.05-12.53-6.56-3.3-4.89-2.3-11.4-1.27-15.88,12.1-52.2,20.12-99.75,24.55-145.37,3.03-31.29-6.9-56.62-30.36-77.44-16.26-14.44-31.28-30.02-45.8-45.09-30.58-31.74-49.07-69.73-63.12-102.71-21.62-50.74-50.77-100.65-86.64-148.35-2.43-3.23-4.64-6.51-6.57-9.74-8.46-14.16-9.36-26.75-2.75-38.5,7.13-12.67,18.99-19.2,35.24-19.4.35,0,.71,0,1.06,0,25,0,46.02,11.38,61.54,21.3,34.75,22.2,59.07,53.49,76.39,78.27,4.15,5.94,10.46,10.76,17.11,15.58.42.3.73.45.9.5.25-.28.75-1.1,1.11-2.77,9.11-42.83,12.45-84.98,9.93-125.28l-.98-15.56c-3.9-61.74-7.93-125.59-6.01-188.68v-.11c.63-20.61,1.28-41.92,11.72-61.53,8.99-16.88,25.84-27.37,43.98-27.37,11.78,0,22.94,4.58,31.41,12.89,13.2,12.95,15.96,29.82,16.89,43.07,2.17,30.8,4.59,62.04,6.98,92.51l.12-2.37c2.13-41.56,4.33-84.54,7.42-126.77,1.77-24.12,9.88-42.22,24.8-55.36,10.75-9.47,22.45-14.26,34.78-14.26M395.85,340.8c-4.21,0-9.99-4.09-11.67-8.25-2.95-7.33-6.55-17.02-8.19-26.97-9.65-58.35-15.22-120.22-17.52-194.7-.26-8.26-1.52-15.2-3.77-20.62-4.25-10.24-12.59-16.36-22.32-16.36-7.78,0-15.43,4.09-20.98,11.23-6.09,7.83-9.37,17.45-10.32,30.27-4.56,61.99-1.45,122.67,2.58,179.01,2.98,41.65,5.64,90.05-.63,137.38-1.15,8.7-2.35,17.39-3.45,25.37-.33,2.43-.66,4.79-.97,7.07.77.35,1.54.69,2.3,1.02,3.94,1.71,7.66,3.32,9.2,6.87,4.14,9.53-4.8,14.54-9.61,17.24-7.87,4.41-15.85,6.65-23.72,6.65h0c-13.69,0-26.36-7-35.69-19.71-2.62-3.57-5.25-7.23-7.79-10.77-7.33-10.21-14.91-20.78-23.18-30.34-22.99-26.56-45.04-42.62-69.39-50.55-7.87-2.56-16.35-3.92-24.53-3.92-1.87,0-3.74.07-5.53.22-4.82.39-8.48,2.46-10.31,5.82-2.07,3.82-1.68,8.92,1.06,13.98,2.21,4.08,5.11,8.04,7.91,11.87l.81,1.11c36,49.3,63.55,96.26,84.21,143.58,1.47,3.36,2.92,6.73,4.37,10.11,10.98,25.51,22.34,51.89,41.01,73.03,20.33,23.02,41.23,44.64,62.11,64.26,28.4,26.68,40.36,56.57,36.54,91.37-3.33,30.42-6.85,57.24-10.76,82-2.53,16.03-5.7,31.63-9.06,48.15-1.22,5.99-2.47,12.15-3.69,18.35.09.02.18.05.26.07,2.48.66,4.83,1.28,7.09,1.61,7.27,1.05,14.64,2.18,21.77,3.27,17.75,2.73,36.11,5.54,54.21,7.26,19.94,1.89,40.28,2.85,60.45,2.85,44.72,0,90.7-4.72,136.66-14.02,3.38-.68,3.87-1.4,3.89-1.43.08-.12.42-.92-.48-4.48-9.91-39.27-17.36-81.36-22.79-128.67-4.35-37.91,2.45-68.61,21.42-96.64,10.14-14.98,18.85-32.82,28.25-57.84,18.59-49.49,23.47-101.18,25.97-149.67.49-9.55.76-19.32,1.01-28.77.52-19.33,1.06-39.32,3.6-58.83,4.84-37.2,10.91-74.84,16.78-111.23,2.92-18.08,5.93-36.78,8.76-55.18l.39-2.53c2.38-15.37,4.63-29.89-.67-44.27-3.02-8.19-7.47-12.38-14.44-13.56-1.27-.22-2.53-.33-3.73-.33-6.37,0-11.51,3.09-14.88,8.93-4.82,8.36-8.16,16.46-9.91,24.08-4.85,21.08-9.47,42.59-13.94,63.4-3.38,15.74-6.88,32.02-10.46,48.01-1.7,7.61-4.35,15.83-8.33,25.87-2.98,7.52-7.85,11.83-13.35,11.83-1.52,0-3.06-.34-4.56-1-5.54-2.46-9.65-10.14-10.71-16.11-1.46-8.26-1.82-17.55-1.07-27.6,4-53.73,8.26-108.34,12.37-161.15,1.37-17.58,2.74-35.16,4.1-52.75.94-12.16-1.26-22.27-6.74-30.92-5.1-8.06-13.14-12.69-22.05-12.69-7.73,0-14.92,3.5-20.26,9.86-7.32,8.72-9.37,19.74-10.4,29.37-2.54,23.7-5.04,47.8-7.46,71.11-2.95,28.41-5.99,57.79-9.14,86.68-1.79,16.42-4.32,33.2-7.51,49.85-.73,3.8-3.8,6.49-6.51,8.87-1.04.91-2.02,1.77-2.78,2.6l-3.08,3.38-2.94-3.5c-.79-.94-1.76-1.89-2.79-2.9-2.6-2.55-5.54-5.43-6.48-9.27-2.13-8.71-3.18-17.92-3.05-26.64.58-38.97,1.3-78.58,1.99-116.89.63-35.18,1.29-71.55,1.84-107.33.11-7.13-.08-15.4-2.32-22.71-3.86-12.6-14.38-20.75-26.81-20.75-7.25,0-14.21,2.74-20.12,7.93-8.97,7.87-14.45,18.41-16.3,31.34l-.53,3.72c-2.63,18.42-5.36,37.46-5.9,56.14-1.13,38.91-1.78,78.49-2.4,116.77-.36,21.94-.73,44.63-1.19,66.95-.16,7.72-1.13,15.52-2.9,23.18-.92,4-4.97,10.17-9.89,10.88-.32.05-.65.07-.98.07h0M455.1,0c-12.58,0-24.5,4.88-35.44,14.51-15.12,13.31-23.35,31.64-25.13,56.03-2.77,37.83-4.83,76.26-6.75,113.72-1.96-25.13-3.96-51.28-5.77-77.09-.94-13.42-3.75-30.52-17.19-43.71-8.66-8.5-20.06-13.17-32.11-13.17-18.51,0-35.7,10.69-44.86,27.9-10.55,19.82-11.2,41.24-11.83,61.96v.11c-1.93,63.14,2.11,127.01,6.01,188.77l.98,15.56c2.51,40.21-.82,82.26-9.91,125.01-.16.74-.34,1.27-.5,1.63-6.56-4.76-12.78-9.51-16.83-15.31-17.36-24.85-41.77-56.24-76.67-78.54-15.64-9.99-36.82-21.45-62.08-21.45-.36,0-.71,0-1.07,0-16.63.21-28.78,6.91-36.1,19.91-6.81,12.09-5.9,25.01,2.76,39.5,1.95,3.26,4.18,6.57,6.63,9.83,35.83,47.63,64.94,97.47,86.52,148.14,14.09,33.06,32.62,71.16,63.32,103.01,14.54,15.09,29.57,30.69,45.86,45.15,23.21,20.59,33.03,45.65,30.03,76.6-4.42,45.57-12.44,93.08-24.52,145.24-1.08,4.66-2.11,11.45,1.41,16.66,2.54,3.76,6.73,5.98,13.2,6.99,7.11,1.11,14.34,2.28,21.33,3.41h.08c24.51,3.98,49.85,8.09,75.05,10.39,18.56,1.7,37.64,2.56,56.73,2.56,47.74,0,96.35-5.14,148.63-15.7,8.5-1.72,13.28-4.31,15.98-8.66,2.69-4.33,2.89-9.7.68-17.95-13.28-49.61-21.75-100.24-25.17-150.49-1.43-20.97,3.66-39.71,15.55-57.28,18.2-26.89,32.23-57.74,41.69-91.72,14.81-53.18,18.5-108.62,20.8-156.42.32-6.66.57-13.62.8-19.76.69-18.92,1.4-38.47,4.01-57.31,4.67-33.83,10.26-68.14,15.67-101.32v-.06s.05-.27.05-.27c3.23-19.86,6.58-40.39,9.69-60.62,2.76-17.93,3.97-36.95-5.78-54.58-7.8-14.11-21.98-22.87-37-22.87-11.2,0-21.73,4.8-29.65,13.5-9.27,10.19-14.46,23.57-17.19,32.99-4.07,14.09-6.99,28.64-9.81,42.72-1.2,6.01-2.45,12.23-3.78,18.37-.29,1.35-.58,2.7-.88,4.04.11-1.67.23-3.35.35-5.04,1.51-20.04,3.15-40.42,4.73-60.12l.02-.3v-.08c2.66-33.08,5.41-67.29,7.65-100.99.69-10.34-1.17-21.73-5.23-32.07-8.02-20.44-24.05-32.1-45.15-32.85-.69-.02-1.38-.04-2.06-.04-19.61,0-34.94,10.21-44.34,29.52-3.71,7.62-6.21,15.56-7.23,22.96-1.81,13.05-3.45,26.14-4.99,38.91.36-15.39.72-30.79,1.08-46.18.1-4.24.3-8.58.49-12.79.47-10.29.96-20.91.06-31.42-1.9-22.31-14.1-38.68-34.35-46.08-6.21-2.27-12.43-3.42-18.47-3.42h0ZM395.85,341.8c.38,0,.76-.03,1.12-.08,5.42-.78,9.71-7.26,10.72-11.65,1.78-7.73,2.77-15.6,2.92-23.39.46-22.42.83-45.06,1.19-66.95v-.08c.63-38.25,1.28-77.81,2.4-116.68.54-18.63,3.26-37.64,5.89-56.02l.53-3.72c1.81-12.69,7.18-23.03,15.97-30.73,5.73-5.02,12.46-7.68,19.46-7.68,11.97,0,22.12,7.87,25.85,20.04,2.2,7.18,2.38,15.35,2.27,22.4-.55,35.8-1.21,72.16-1.84,107.32l-.02.87c-.68,38.03-1.39,77.35-1.97,116.02-.13,8.8.93,18.1,3.08,26.89,1.01,4.12,4.06,7.11,6.75,9.75,1.01.99,1.96,1.92,2.72,2.83l2.94,3.5.73.88.77-.84,3.08-3.38c.72-.79,1.68-1.63,2.7-2.52,2.83-2.48,6.04-5.3,6.83-9.43,3.2-16.69,5.73-33.48,7.52-49.93,3.14-28.8,6.18-58.09,9.11-86.41l.03-.27.02-.22c2.41-23.24,4.9-47.27,7.44-70.89,1.02-9.48,3.02-20.32,10.17-28.84,5.14-6.13,12.06-9.5,19.49-9.5,8.56,0,16.29,4.46,21.21,12.22,5.36,8.46,7.51,18.38,6.58,30.31-1.36,17.48-2.72,34.97-4.08,52.45l-.02.3c-4.1,52.59-8.34,106.98-12.37,161.16-.75,10.14-.39,19.5,1.08,27.84,1.1,6.23,5.43,14.26,11.28,16.85,1.63.72,3.3,1.09,4.96,1.09,5.93,0,11.14-4.54,14.28-12.47,4-10.09,6.67-18.36,8.38-26.02,3.57-15.98,7.07-32.25,10.45-47.99l.04-.21c4.46-20.75,9.07-42.2,13.9-63.21,1.73-7.52,5.03-15.53,9.8-23.8,3.18-5.52,8.03-8.43,14.02-8.43,1.14,0,2.34.1,3.56.31,6.57,1.11,10.78,5.1,13.66,12.92,5.21,14.14,2.98,28.53.62,43.77l-.39,2.53c-2.84,18.5-5.85,37.15-8.75,55.17-5.87,36.44-11.94,74.07-16.78,111.26-2.55,19.55-3.08,39.57-3.61,58.92-.25,9.43-.52,19.17-1.01,28.75-2.5,48.4-7.37,100-25.91,149.37-9.36,24.94-18.04,42.71-28.14,57.63-19.11,28.24-25.96,59.16-21.58,97.32,5.44,47.36,12.9,89.49,22.81,128.8.6,2.37.6,3.35.57,3.68-.28.17-1.11.59-3.21,1.01-45.9,9.29-91.81,14-136.46,14-20.14,0-40.44-.96-60.35-2.84-18.09-1.71-36.42-4.53-54.15-7.25l-.24-.04c-7.05-1.08-14.35-2.2-21.54-3.24-2.02-.29-4.12-.83-6.33-1.42,1.15-5.83,2.33-11.63,3.48-17.26l.04-.17c3.36-16.54,6.54-32.15,9.07-48.19,3.91-24.77,7.43-51.61,10.77-82.05,3.85-35.14-8.2-65.3-36.85-92.21-20.86-19.6-41.74-41.19-62.05-64.19-18.56-21.02-29.88-47.32-40.84-72.76-1.45-3.38-2.91-6.75-4.38-10.12-20.7-47.38-48.28-94.41-84.32-143.77l-.81-1.11c-2.79-3.8-5.66-7.73-7.84-11.75-2.58-4.77-2.97-9.52-1.06-13.03,1.66-3.06,5.04-4.94,9.51-5.3,1.77-.14,3.6-.22,5.45-.22,8.07,0,16.45,1.34,24.22,3.87,24.17,7.87,46.08,23.83,68.94,50.25,8.24,9.52,15.81,20.07,23.12,30.26l.08.11c2.51,3.5,5.12,7.13,7.71,10.67,9.52,12.98,22.49,20.12,36.5,20.12,8.05,0,16.19-2.28,24.21-6.78,4.72-2.64,14.53-8.15,10.03-18.51-1.7-3.91-5.59-5.6-9.72-7.39-.54-.23-1.07-.46-1.61-.7l.77-5.63.1-.7.03-.22c1.07-7.75,2.28-16.53,3.42-25.16,6.29-47.42,3.63-95.88.64-137.58-4.03-56.3-7.14-116.94-2.58-178.87.93-12.62,4.14-22.06,10.11-29.73,5.36-6.89,12.72-10.84,20.19-10.84,9.31,0,17.31,5.88,21.4,15.74,2.2,5.31,3.45,12.13,3.7,20.27,2.3,74.52,7.88,136.43,17.53,194.83,1.66,10.04,5.28,19.8,8.25,27.18,1.84,4.56,7.96,8.88,12.59,8.88h0Z"/>
  </g>
  <g>
    <path class="cls-1" d="M430.58,935.32c-24.57-2.2-49.97-4.46-76.1-6.9-3.16-.29-9.03-.84-12.65-5.53-1.52-1.97-3.15-5.4-2.29-10.58,1.13-6.85,5.88-10.93,12.7-10.93,1.67,0,3.23.23,4.61.43l.73.11c33.08,4.66,66.8,7.02,100.2,7.02,28.17,0,56.85-1.68,85.26-5,2.38-.28,4.9-.65,7.12-.97,1.87-.27,3.75-.54,5.62-.79l.18-.02c1.48-.19,3.33-.43,5.22-.43,7.61,0,12.68,4.21,13.56,11.25.47,3.76-.4,7.17-2.52,9.87-3.81,4.86-10.14,5.6-13.54,6-2.54.3-5.14.66-7.66,1.01-4.67.65-9.5,1.32-14.37,1.67-19.03,1.4-38.06,2.67-58.2,4.02l-.28.02c-8.06.54-16.36,1.1-25,1.68l-.59.04-22.01-1.97Z"/>
    <path d="M352.24,901.88c1.64,0,3.18.22,4.53.42l.73.11c33.11,4.66,66.85,7.02,100.27,7.02,28.19,0,56.89-1.68,85.31-5,2.35-.28,4.78-.63,7.14-.97,1.87-.27,3.74-.54,5.61-.79l.18-.02c1.47-.19,3.3-.43,5.16-.43,7.34,0,12.22,4.04,13.07,10.81.45,3.62-.38,6.91-2.42,9.5-3.68,4.69-9.87,5.42-13.2,5.81-2.54.3-5.15.66-7.67,1.01-4.7.65-9.49,1.31-14.34,1.67-18.88,1.39-37.98,2.67-58.2,4.02l-.28.02c-8.06.54-16.36,1.1-25,1.68l-.55.04-21.97-1.96c-24.6-2.2-50.05-4.47-76.1-6.9-3.08-.29-8.81-.82-12.3-5.34-1.46-1.89-3.02-5.19-2.19-10.2,1.09-6.58,5.65-10.51,12.21-10.51M352.24,900.88c-7.08,0-12.01,4.24-13.19,11.35-.89,5.36.81,8.92,2.39,10.97,3.75,4.87,9.76,5.42,12.99,5.72,26.13,2.43,51.53,4.7,76.1,6.9l21.97,1.96h.08s.08,0,.08,0l.55-.04c8.64-.59,16.94-1.14,25-1.68l.28-.02c20.15-1.35,39.18-2.63,58.2-4.02,4.89-.36,9.72-1.03,14.4-1.68,2.51-.35,5.11-.71,7.65-1.01,3.47-.41,9.94-1.16,13.87-6.19,2.2-2.81,3.11-6.35,2.62-10.24-.91-7.32-6.17-11.69-14.06-11.69-1.93,0-3.79.24-5.29.44l-.17.02c-1.89.24-3.79.52-5.63.79-2.22.32-4.74.69-7.11.97-28.38,3.31-57.05,4.99-85.2,4.99-33.38,0-67.07-2.36-100.13-7.01l-.73-.11c-1.39-.2-2.97-.43-4.68-.43h0Z"/>
  </g>
</svg>