<?xml version="1.0" encoding="UTF-8"?>
<svg id="Layer_1" data-name="Layer 1" xmlns="http://www.w3.org/2000/svg" viewBox="0 0 874.83 981.33">
  <defs>
    <style>
      .cls-1 {
        fill: #fff;
        stroke: #000;
        stroke-miterlimit: 10;
      }
    </style>
  </defs>
  <path class="cls-1" d="M207.18,387.65c21.74-20.64,42.22-40.6,63.28-59.92,22.02-20.2,44.24-40.23,67.03-59.54,24.19-20.49,51.71-34.42,83.69-38.42,36.09-4.51,69.19,4.05,98.23,25.14,21.08,15.31,40.66,32.8,60.18,50.13,23.66,21,46.65,42.76,69.71,64.42,6.13,5.76,11.47,12.37,17.81,19.28,1.79-1.61,3.74-3.33,5.65-5.09,6.41-5.9,12.63-12.02,19.24-17.68,8.3-7.12,17.96-9.15,28.68-6.79,16.05,3.54,32.25,6.43,48.19,10.39,58.09,14.43,92.2,52.71,101.78,110.44,12.19,73.56-5.68,140.14-56.63,195.92-10.93,11.97-24.5,21.91-38.05,31.01-19.34,12.98-40.94,15.52-63.76,9.92-16.43-4.04-33.3-6.29-49.69-10.46-8.9-2.27-17.2-6.88-24.87-10.07-7.52,6.88-15.48,14.36-23.65,21.61-34.59,30.66-76.29,45.35-120.93,52.77-50.92,8.47-101.38,5.61-150.87-9.32-40.19-12.12-75.21-32.67-102.13-65.64-.46-.56-1.12-.96-2.02-1.71-17.86,16.96-42.04,14.32-63.56,19.9-12.85,3.34-26.54,5.72-39.7,5.12-24.25-1.1-43.92-14.1-61.07-30.2C10.58,629.57-10.49,555.85,5.75,472.51c11.14-57.16,48.57-92.11,106.08-104.39,13.88-2.96,27.89-5.34,41.67-8.7,12.96-3.16,23.55.67,33,9.17,7.35,6.62,14.55,13.4,20.69,19.06ZM540.99,735.18c.41.37.81.74,1.22,1.11,3.18-1.33,6.38-2.63,9.55-3.99,43.93-18.81,76.75-49.01,93.28-94.46,18.67-51.34,29.68-104.37,29.92-159.25.17-38.18-14.17-70.42-41.84-96.47-27.02-25.43-54.32-50.57-82-75.28-14.07-12.55-28.45-25.07-44.1-35.49-36.73-24.47-76.2-29.02-117.33-11.61-18.99,8.04-35.5,20.1-50.71,33.88-31.94,28.92-63.91,57.81-95.49,87.12-28.41,26.38-43.85,58.95-43.33,98.11.69,51.98,10.53,102.45,27.04,151.62,13.59,40.47,39.46,71.1,76.51,92.09,10.21,5.78,21.16,10.24,31.77,15.31.43-.67.87-1.34,1.3-2.01-4.31-7.47-8.5-15.01-12.99-22.37-2.53-4.14-2.53-7.5,1.9-10.04,4.55-2.61,6.95.53,8.98,3.83,4.18,6.78,8.58,13.48,12.14,20.58,1.9,3.8,2.25,8.38,3.65,14.02,57.81,16.25,117.42,16.07,175.23-.06,1.67-5.39,2.31-9.41,4.1-12.82,3.7-7.04,7.98-13.78,12.08-20.61,2.21-3.68,4.36-7.94,9.78-4.7,5.66,3.38,2.98,7.51.7,11.51-3.79,6.65-7.58,13.31-11.37,19.97ZM195.94,404.78c-6.73-6.26-14.52-13.55-22.36-20.8-4.54-4.19-9.72-5.45-15.88-4.09-13.85,3.06-27.8,5.68-41.68,8.62-50.56,10.72-80.57,42.22-91.26,92.09-8.09,37.74-3.34,74.98,8.77,111.17,13.46,40.21,37.47,72.95,73.49,95.92,13.61,8.68,28.6,13.83,45.44,10.13,19.19-4.22,38.56-7.64,57.7-12.05,5.52-1.27,10.52-4.75,15.74-7.2-5.11-11.15-9.99-20.66-13.9-30.55-14.92-37.76-22.34-77.4-28.51-117.29-4.08-26.41-6.82-53.09-1.32-79.53,3.22-15.45,8.91-30.38,13.75-46.43ZM854.03,515.34c-.53-6.6-.78-15.09-1.95-23.46-6-42.73-25.35-77.5-66.24-94.41-22.9-9.47-48.51-12.42-72.99-17.92-2.43-.54-6,.98-8.12,2.68-7.16,5.77-13.61,12.45-20.92,18.01-5.31,4.05-6.15,7.23-2.84,13.42,8.65,16.22,13.1,33.84,14.16,52.24,1.89,32.62-2.77,64.62-9.09,96.48-7.33,36.96-15.63,73.61-32.72,107.59-4.61,9.16-4,10.84,5.76,14.48,2.09.78,4.3,1.27,6.49,1.71,16.1,3.3,32.35,5.99,48.28,9.97,15.91,3.97,30.94,3.34,45.78-3.91,21.16-10.33,37.37-26.47,51.6-44.57,30.04-38.19,41.41-82.7,42.81-132.32Z"/>
  <path class="cls-1" d="M313.75,603.28c1.92-60.85,21.99-109.19,62.59-148.14,21.17-20.31,46.32-32.02,76.75-26.69,20.67,3.62,37.52,14.79,51.95,29.26,41.89,42.03,63.56,92.69,59.64,152.31-1.37,20.85-8.15,41.35-12.55,61.99-.41,1.91-1.3,3.79-2.3,5.49-2.72,4.58-6.66,7.03-11.89,4.63-4.97-2.28-5.39-6.64-3.97-11.46,3.64-12.4,8.39-24.62,10.61-37.28,11.32-64.49-6.83-119.95-54.19-164.97-33.39-31.75-72.42-30.58-104.55,2.56-51.6,53.2-66.37,115.65-44.58,186.6,1.39,4.52,3.08,8.95,4.54,13.45,1.57,4.85.78,9.17-4.2,11.33-5.4,2.34-9.68-.24-11.42-5.24-4.23-12.2-8.72-24.43-11.4-37.02-2.89-13.57-3.83-27.56-5.03-36.81Z"/>
  <path class="cls-1" d="M440.64,639.93c23.16,0,46.31,0,69.47,0,2.24,0,4.49-.05,6.72.15,6.23.56,10.35,3.56,10.63,10.22.24,5.85-4.34,10.71-10.81,11.13-5.2.34-10.45-.04-15.68-.04-43.58,0-87.15.03-130.73-.03-3.46,0-7.62.5-10.2-1.17-3.12-2.03-6.85-6.2-6.72-9.3.15-3.49,3.79-7.44,6.91-9.95,1.93-1.55,5.73-1.03,8.69-1.03,23.9-.07,47.81-.04,71.71-.04v.05Z"/>
  <path class="cls-1" d="M440.04,608.5c-24.66,0-49.31.01-73.97-.02-2.73,0-5.52.05-8.18-.46-5.71-1.1-8.51-4.86-8.39-10.62.11-5.55,3.36-8.66,8.52-9.81,1.91-.43,3.96-.26,5.95-.26,49.81-.01,99.62,0,149.43,0,1.74,0,3.49-.05,5.23.06,7.04.41,11.68,4.47,11.64,10.11-.04,6.05-4.88,10.82-11.78,10.85-26.15.13-52.3.05-78.45.05v.11Z"/>
  <path class="cls-1" d="M440.23,560.22c-23.65,0-47.3-.03-70.95.02-5.56.01-9.93-1.55-10.97-7.68-.99-5.86,2.57-9.97,9.69-10.41,21.11-1.29,42.24-3.17,63.36-3.11,26.85.07,53.72,1.58,80.55,2.96,9.51.49,13.79,8.35,8.3,14.49-2.09,2.34-6.44,3.67-9.78,3.72-23.4.31-46.8.16-70.2.16v-.16Z"/>
  <path class="cls-1" d="M439.91,707.47c-21.62-2.2-43.38-4.36-65.13-6.65-6.07-.64-10.79-3.12-9.92-10.34.84-6.98,6-7.35,11.66-7.34,42.27.07,84.55.08,126.82-.15,5.8-.03,10.08,1.22,10.81,7.41.78,6.6-3.54,9.59-9.33,10.24-21.49,2.4-43.01,4.55-64.91,6.84Z"/>
  <path class="cls-1" d="M434.87,493.99c29.93-.28,53.08,6.64,75.07,18.06,5.47,2.84,10.14,6.17,6.71,13.34-2.64,5.52-7.12,6.29-14.75,2.56-42.01-20.54-83.88-20.65-125.63.72-5.46,2.79-10.28,2.56-13.28-3.34-3.05-6-.02-9.76,5.31-12.62,22.34-11.98,45.94-19.02,66.56-18.71Z"/>
  <path class="cls-1" d="M440.1,268.81c27.02.61,52.64,10.11,76.86,24.17,4.05,2.35,4.78,5.75,2.73,9.5-2.69,4.92-6.56,3.71-10.9,1.86-15.47-6.6-30.6-14.77-46.74-18.86-30.03-7.6-58.67-.72-85.58,13.91-3.71,2.02-7.26,4.98-11.21,5.67-2.78.49-7.25-1.36-8.8-3.63-1.08-1.59.61-7.19,2.62-8.41,24.44-14.81,50.83-23.64,81.01-24.21Z"/>
  <path class="cls-1" d="M289.12,558.85c-2.89,7.32-4.7,15.28-8.87,21.69-7.36,11.33-20.35,11.13-28.85.61-9.77-12.09-8.37-34.71,2.81-45.48,9.25-8.91,21.22-7.7,27.61,3.55,3.22,5.67,4.67,12.35,7.3,19.63Z"/>
  <path class="cls-1" d="M635,559.43c-2.37,7.19-3.56,13.11-6.18,18.3-6.96,13.76-21.96,14.72-31.34,2.38-8.53-11.22-8.7-30.7-.37-42.06,7.82-10.67,20.39-11.52,28.05-.69,4.66,6.59,6.79,14.98,9.84,22.08Z"/>
  <path class="cls-1" d="M119.62,546.03c-3.23,10.58-4.94,21.94-9.98,31.57-12.28,23.5-34.32,26.27-53.41,7.9-20.39-19.61-26.12-61.07-11.82-85.52,12.2-20.86,34.61-23.97,52.11-7.22,13.01,12.45,21.09,32.59,21.12,52.67.66.2,1.32.4,1.97.6ZM104.66,546.2c-.67-.27-1.33-.54-2-.81-.4-15.72-5-29.89-16.27-41.22-9.37-9.42-21.2-7.96-28.43,3.02-12.58,19.1-6.79,55.06,11.14,69.14,9.27,7.28,18.91,6.97,24.99-2.97,4.99-8.16,7.16-18.04,10.57-27.16Z"/>
  <path class="cls-1" d="M161.2,462.21c0-22.18,0-44.35,0-66.53,0-1-.44-2.3.03-2.94,1.86-2.53,3.64-6.31,6.12-6.93,4.68-1.17,6.36,2.72,6.44,6.94.3,17.19.57,34.38.82,51.57.38,26.41-.62,52.93,1.51,79.19,1.7,20.96,6.82,41.69,11.09,62.38,6.09,29.51,12.79,58.89,19.23,88.32.16.73.35,1.45.52,2.18,1.07,4.46.19,8.14-4.73,9.36-5.32,1.32-7.08-2.37-8.01-6.57-3.51-15.79-6.98-31.59-10.4-47.41-6.31-29.19-13.07-58.29-18.6-87.63-2.33-12.36-2.41-25.21-2.8-37.85-.45-14.69-.1-29.4-.1-44.09-.36,0-.73,0-1.09,0Z"/>
  <path class="cls-1" d="M838.76,539.04c-.77,15.74-6.73,34.87-23.1,49.31-15.92,14.05-34.75,11.93-47.16-5.33-12.97-18.03-13.18-38.24-7.79-58.66,3.88-14.69,10.96-27.85,24.23-36.52,15.87-10.37,32.94-6.78,43.6,8.93,7.56,11.14,10.29,23.6,10.22,42.27ZM770.83,546.21c2.53,8.18,3.96,16.94,7.85,24.41,6.67,12.81,18.09,14.07,28.99,4.45,16.74-14.78,21.74-47.65,10.17-66.86-7.23-12-19.22-13.67-29.32-3.78-11.52,11.28-15.84,25.49-17.68,41.78Z"/>
  <path class="cls-1" d="M712.93,463.06c0,20.42.71,40.88-.27,61.25-.58,12.06-3.38,24.1-5.98,35.97-8.52,38.89-17.4,77.69-26.14,116.53-.16.73-.33,1.46-.49,2.19-.95,4.56-3.49,7.35-8.36,6.17-4.71-1.14-5.01-4.67-4.05-8.86,3.96-17.2,7.81-34.43,11.63-51.66,5.72-25.74,13.11-51.26,16.59-77.3,3.44-25.75,3.22-52.03,4.01-78.09.73-24.14.67-48.3.98-72.46.02-1.74-.46-3.94.39-5.12,1.72-2.37,3.98-5.32,6.46-5.8,1.53-.3,4.47,3.22,5.64,5.58,1.01,2.04.5,4.88.51,7.36.03,21.42.01,42.83.01,64.25-.32,0-.63,0-.95,0Z"/>
</svg>